<?xml version="1.0" encoding="UTF-8"?>
<svg id="ELEMENTS" xmlns="http://www.w3.org/2000/svg" viewBox="0 0 75 75">
  <defs>
    <style>
      .cls-1 {
        fill: #000;
      }

      .cls-1, .cls-2 {
        stroke-width: 0px;
      }

      .cls-2 {
        fill: #fff;
      }
    </style>
  </defs>
  <circle class="cls-1" cx="37.5" cy="37.5" r="37.5"/>
  <g>
    <path class="cls-2" d="M19.74,48.35c.32-.32.75-.5,1.22-.5h41.99c.77,0,1.15.93.61,1.47l-8.3,8.3c-.32.32-.75.5-1.22.5H12.05c-.77,0-1.15-.93-.61-1.47l8.3-8.3Z"/>
    <path class="cls-2" d="M19.74,17.38c.33-.32.77-.5,1.22-.5h41.99c.77,0,1.15.93.61,1.47l-8.3,8.3c-.32.32-.75.5-1.22.5H12.05c-.77,0-1.15-.93-.61-1.47l8.3-8.3Z"/>
    <path class="cls-2" d="M55.26,32.77c-.32-.32-.75-.5-1.22-.5H12.05c-.77,0-1.15.93-.61,1.47l8.3,8.3c.32.32.75.5,1.22.5h41.99c.77,0,1.15-.93.61-1.47l-8.3-8.3Z"/>
  </g>
</svg>