<?xml version="1.0" encoding="UTF-8"?>
<svg id="ELEMENTS" xmlns="http://www.w3.org/2000/svg" viewBox="0 0 75 75">
  <defs>
    <style>
      .cls-1 {
        fill: #000;
      }

      .cls-1, .cls-2 {
        stroke-width: 0px;
      }

      .cls-2 {
        fill: #fff;
        fill-rule: evenodd;
      }
    </style>
  </defs>
  <circle class="cls-1" cx="37.5" cy="37.5" r="37.5"/>
  <path class="cls-2" d="M26.87,52.42h-7.28c-1.53,0-2.28,0-2.75-.29-.5-.32-.8-.86-.84-1.45-.03-.54.35-1.21,1.11-2.53l17.97-31.67c.76-1.34,1.15-2.02,1.64-2.27.53-.27,1.15-.27,1.68,0,.49.25.88.92,1.64,2.27l3.69,6.45.02.03c.83,1.44,1.24,2.17,1.43,2.94.2.84.2,1.72,0,2.56-.18.77-.6,1.51-1.44,2.98l-9.44,16.69-.02.04c-.83,1.45-1.25,2.19-1.84,2.75-.64.61-1.4,1.05-2.24,1.3-.76.21-1.62.21-3.33.21Z"/>
  <path class="cls-2" d="M45.25,52.42h10.43c1.54,0,2.31,0,2.77-.3.5-.32.81-.87.84-1.46.03-.53-.34-1.16-1.07-2.41-.03-.04-.05-.09-.08-.13l-5.22-8.94-.06-.1c-.73-1.24-1.1-1.87-1.58-2.11-.52-.27-1.14-.27-1.67,0-.48.25-.87.9-1.63,2.22l-5.2,8.94-.02.03c-.76,1.32-1.14,1.97-1.12,2.51.04.59.34,1.13.84,1.46.45.29,1.23.29,2.76.29Z"/>
</svg>