<?xml version="1.0" encoding="UTF-8"?>
<svg id="ELEMENTS" xmlns="http://www.w3.org/2000/svg" viewBox="0 0 75 75">
  <defs>
    <style>
      .cls-1 {
        fill: #000;
      }

      .cls-1, .cls-2 {
        stroke-width: 0px;
      }

      .cls-2 {
        fill: #fff;
      }
    </style>
  </defs>
  <path class="cls-1" d="M37.5,0C58.21,0,75,16.79,75,37.5s-16.79,37.5-37.5,37.5S0,58.21,0,37.5,16.79,0,37.5,0"/>
  <path class="cls-2" d="M42.13,32.5v-5.58h12.76v-8.5H20.15v8.5h12.76v5.57c-10.37.48-18.17,2.53-18.17,4.99s7.8,4.51,18.17,4.99v17.87h9.22v-17.87c10.35-.48,18.13-2.53,18.13-4.99s-7.78-4.51-18.13-4.99M42.13,40.97h0c-.26.01-1.6.09-4.57.09-2.38,0-4.06-.07-4.65-.1h0c-9.16-.4-16-1.99-16-3.9s6.84-3.5,16-3.91v6.23c.6.04,2.32.14,4.68.14,2.84,0,4.27-.12,4.54-.14v-6.23c9.14.41,15.96,2,15.96,3.91s-6.82,3.5-15.96,3.91"/>
</svg>