<?xml version="1.0" encoding="UTF-8"?>
<svg id="ELEMENTS" xmlns="http://www.w3.org/2000/svg" viewBox="0 0 75 75">
  <defs>
    <style>
      .cls-1 {
        fill: #000;
      }

      .cls-1, .cls-2 {
        stroke-width: 0px;
      }

      .cls-2 {
        fill: #fff;
      }
    </style>
  </defs>
  <circle class="cls-1" cx="37.5" cy="37.5" r="37.5"/>
  <g>
    <ellipse class="cls-2" cx="37.5" cy="13.84" rx="10.8" ry="6.28"/>
    <ellipse class="cls-2" cx="37.5" cy="61.16" rx="10.8" ry="6.28"/>
    <path class="cls-2" d="M11.57,22.53c2.98-5.16,7.83-7.94,10.84-6.21,3.01,1.74,3.02,7.33.04,12.49-2.98,5.16-7.83,7.94-10.84,6.21-3.01-1.74-3.02-7.33-.04-12.49Z"/>
    <path class="cls-2" d="M52.55,46.19c2.98-5.16,7.83-7.94,10.84-6.21,3,1.73,3.02,7.33.04,12.49-2.98,5.16-7.83,7.94-10.84,6.21-3-1.73-3.02-7.33-.04-12.49Z"/>
    <path class="cls-2" d="M11.62,39.98c3.01-1.74,7.86,1.04,10.84,6.21s2.96,10.76-.04,12.49c-3.01,1.74-7.86-1.04-10.84-6.21-2.98-5.16-2.96-10.76.04-12.49Z"/>
    <path class="cls-2" d="M52.59,16.33c3-1.73,7.85,1.05,10.84,6.21,2.98,5.16,2.96,10.75-.04,12.49-3,1.73-7.85-1.05-10.84-6.21-2.98-5.16-2.96-10.75.04-12.49Z"/>
  </g>
</svg>