<?xml version="1.0" encoding="UTF-8"?>
<svg id="ELEMENTS" xmlns="http://www.w3.org/2000/svg" viewBox="0 0 75 75">
  <defs>
    <style>
      .cls-1 {
        fill: #000;
      }

      .cls-1, .cls-2 {
        stroke-width: 0px;
      }

      .cls-2 {
        fill: #fff;
      }
    </style>
  </defs>
  <path class="cls-1" d="M73.88,46.57c-5.01,20.09-25.36,32.32-45.45,27.31C8.34,68.87-3.89,48.52,1.12,28.43,6.13,8.34,26.48-3.89,46.57,1.12c20.09,5.01,32.32,25.36,27.31,45.46h0Z"/>
  <path class="cls-2" d="M54.04,32.16c.75-4.99-3.05-7.67-8.25-9.46l1.69-6.76-4.12-1.03-1.64,6.58c-1.08-.27-2.19-.52-3.3-.78l1.65-6.63-4.11-1.03-1.69,6.76c-.9-.2-1.77-.41-2.63-.62v-.02s-5.67-1.42-5.67-1.42l-1.09,4.39s3.05.7,2.99.74c1.67.42,1.97,1.52,1.92,2.39l-1.93,7.73-2.69,10.79c-.2.51-.72,1.27-1.89.98.04.06-2.99-.75-2.99-.75l-2.04,4.71,5.36,1.33c1,.25,1.97.51,2.93.76l-1.7,6.84,4.11,1.03,1.69-6.76c1.12.3,2.21.59,3.28.85l-1.68,6.73,4.11,1.03,1.7-6.82c7.02,1.33,12.29.79,14.51-5.55,1.79-5.11-.09-8.06-3.78-9.98,2.69-.62,4.71-2.39,5.25-6.04h0ZM44.63,45.34c-1.27,5.11-9.88,2.35-12.67,1.65l2.26-9.06c2.79.7,11.73,2.07,10.41,7.4h0ZM45.91,32.08c-1.16,4.65-8.32,2.29-10.65,1.71l2.05-8.22c2.32.58,9.81,1.66,8.6,6.51Z"/>
</svg>