<?xml version="1.0" encoding="UTF-8"?>
<svg id="ELEMENTS" xmlns="http://www.w3.org/2000/svg" viewBox="0 0 75 75">
  <defs>
    <style>
      .cls-1 {
        fill: #000;
      }

      .cls-1, .cls-2 {
        stroke-width: 0px;
      }

      .cls-2 {
        fill: #fff;
      }
    </style>
  </defs>
  <path class="cls-1" d="M37.5,75c20.78,0,37.5-16.72,37.5-37.5S58.28,0,37.5,0,0,16.72,0,37.5s16.72,37.5,37.5,37.5Z"/>
  <path class="cls-2" d="M47.81,43.44c0-5.47-3.28-7.34-9.84-8.13-4.69-.63-5.63-1.88-5.63-4.06s1.56-3.59,4.69-3.59c2.81,0,4.38.94,5.16,3.28.16.47.63.78,1.1.78h2.5c.63,0,1.1-.47,1.1-1.1v-.16c-.63-3.44-3.44-6.09-7.03-6.4v-3.75c0-.63-.47-1.1-1.25-1.25h-2.34c-.63,0-1.09.47-1.25,1.25v3.59c-4.69.63-7.66,3.75-7.66,7.66,0,5.16,3.12,7.19,9.69,7.97,4.38.78,5.78,1.72,5.78,4.22s-2.19,4.22-5.16,4.22c-4.06,0-5.47-1.72-5.94-4.06-.16-.63-.63-.94-1.1-.94h-2.65c-.63,0-1.1.47-1.1,1.1v.16c.63,3.91,3.12,6.72,8.28,7.5v3.75c0,.63.47,1.09,1.25,1.25h2.34c.63,0,1.1-.47,1.25-1.25v-3.75c4.68-.78,7.81-4.07,7.81-8.28h0Z"/>
  <path class="cls-2" d="M29.53,59.84c-12.19-4.38-18.44-17.97-13.91-30,2.34-6.56,7.5-11.56,13.91-13.91.63-.31.94-.78.94-1.56v-2.19c0-.63-.31-1.1-.94-1.25-.16,0-.47,0-.63.16C14.06,15.78,5.94,31.56,10.62,46.41c2.81,8.75,9.53,15.47,18.28,18.28.63.31,1.25,0,1.41-.63.16-.16.16-.31.16-.63v-2.19c0-.47-.47-1.1-.94-1.41ZM46.09,11.09c-.63-.31-1.25,0-1.41.63-.16.16-.16.31-.16.63v2.19c0,.63.47,1.25.94,1.56,12.19,4.38,18.44,17.97,13.91,30-2.34,6.56-7.5,11.56-13.91,13.9-.63.31-.94.78-.94,1.56v2.19c0,.63.31,1.1.94,1.25.16,0,.47,0,.63-.16,14.84-4.69,22.97-20.47,18.28-35.31-2.81-8.9-9.69-15.62-18.28-18.44h0Z"/>
</svg>