<?xml version="1.0" encoding="UTF-8"?>
<svg id="ELEMENTS" xmlns="http://www.w3.org/2000/svg" viewBox="0 0 75 75">
  <defs>
    <style>
      .cls-1 {
        fill: #000;
      }

      .cls-1, .cls-2 {
        stroke-width: 0px;
      }

      .cls-2 {
        fill: #fff;
      }
    </style>
  </defs>
  <circle class="cls-1" cx="37.5" cy="37.5" r="37.5"/>
  <path class="cls-2" d="M36.78,10.67c1.27-.66,2.83.88,2.15,2.15-.39,1.04-1.88,1.31-2.64.52-.81-.76-.54-2.26.49-2.67M23.09,12.14c.77-.32,1.75.39,1.67,1.23.08.92-1.04,1.59-1.83,1.15-1.04-.4-.93-2.1.15-2.39M51.14,14.56c-1.21-.15-1.4-2.05-.24-2.43.9-.44,1.73.39,1.86,1.24-.19.73-.8,1.4-1.63,1.19M26.2,17.97c1.29-.82,3.14.4,2.94,1.9-.07,1.52-2.08,2.4-3.22,1.37-1.1-.81-.93-2.65.28-3.27M45.95,18.84c.58-1.49,2.91-1.53,3.57-.08.65,1.13-.15,2.52-1.31,2.9-1.53.29-2.99-1.37-2.27-2.82M35.13,21.58c-.01-1.28,1.15-2.23,2.37-2.32.81.16,1.68.5,2.03,1.32.64,1.12.07,2.67-1.09,3.18-.53.3-1.16.19-1.74.15-.89-.43-1.63-1.29-1.56-2.33M14.77,23.44c1.18-.73,2.78.6,2.33,1.88-.25,1.11-1.74,1.56-2.59.85-.91-.66-.77-2.26.26-2.74M58.5,23.44c1-.78,2.66.11,2.54,1.38.07,1.15-1.36,2.02-2.36,1.43-1.1-.49-1.21-2.18-.18-2.81M40.86,25.73c1.65-.59,3.62.12,4.56,1.59,1.24,1.8.58,4.55-1.35,5.58-2,1.22-4.92.19-5.66-2.05-.84-2,.38-4.5,2.44-5.13M31.16,25.93c1.83-.87,4.3-.14,5.19,1.74,1.04,1.83.24,4.37-1.63,5.31-1.87,1.06-4.5.26-5.4-1.7-1.01-1.89-.11-4.47,1.84-5.34M21.44,29.25c.14-1.18,1.25-1.95,2.38-2.03,1.21.15,2.18,1.09,2.31,2.31-.08,1.21-1.02,2.4-2.3,2.39-1.41.12-2.65-1.29-2.38-2.68M50.14,27.48c1.45-.85,3.47.39,3.4,2.05.1,1.77-2.13,3.01-3.58,1.98-1.5-.86-1.39-3.3.17-4.03M27.21,33.71c1.7-.47,3.64.33,4.47,1.89.91,1.57.54,3.76-.88,4.91-1.82,1.69-5.17,1.01-6.14-1.3-1.11-2.12.24-4.95,2.54-5.51M45.61,33.7c1.65-.47,3.59.16,4.48,1.67,1.17,1.72.61,4.29-1.13,5.4-1.83,1.29-4.67.61-5.67-1.4-1.22-2.08,0-5.03,2.33-5.66M16.28,35.67c1.47-.56,3.09,1.06,2.5,2.52-.36,1.33-2.23,1.82-3.2.84-1.13-.92-.71-2.96.7-3.36M56.05,37.78c-.04-1.22.85-2.29,2.09-2.36,1,.16,1.98.97,1.9,2.06.09,1.44-1.65,2.43-2.88,1.75-.58-.29-.87-.89-1.12-1.45M9.07,36.38c.88-.39,1.97.38,1.77,1.36-.05,1.11-1.69,1.54-2.29.61-.53-.64-.21-1.64.52-1.97h0ZM64.73,36.36c.62-.44,1.62-.12,1.87.6.42.79-.35,1.88-1.24,1.75-1.25.11-1.66-1.8-.62-2.35M32,41.69c2.32-.6,4.82,1.33,4.83,3.72.15,2.42-2.31,4.56-4.69,4-1.84-.3-3.28-2.07-3.22-3.92,0-1.78,1.34-3.43,3.07-3.8M41.2,41.68c2.36-.66,4.93,1.31,4.89,3.76.12,2.37-2.26,4.44-4.59,3.97-2.19-.28-3.81-2.69-3.2-4.82.31-1.42,1.49-2.57,2.89-2.92M23.47,43.15c1.63-.28,3.16,1.54,2.5,3.09-.48,1.65-2.88,2.1-3.95.75-1.25-1.29-.32-3.66,1.45-3.84M50.44,43.23c1.45-.61,3.24.65,3.13,2.23.06,1.74-2.15,2.94-3.57,1.92-1.61-.91-1.32-3.59.44-4.15M57.98,50.79c-.57-1.06.47-2.47,1.64-2.27.59,0,1,.45,1.37.84.08.63.21,1.38-.32,1.86-.71.9-2.32.64-2.7-.43M14.76,48.81c1.1-.73,2.69.36,2.44,1.65-.13,1.14-1.57,1.79-2.51,1.14-1.01-.59-.98-2.26.07-2.79M36.53,51.2c1.44-.64,3.28.62,3.14,2.21.11,1.76-2.17,2.97-3.58,1.92-1.57-.91-1.31-3.57.43-4.13M26.45,53.55c1.23-.65,2.88.47,2.77,1.84.04,1.13-1.06,2.09-2.18,1.92-.92-.02-1.52-.85-1.82-1.63.02-.86.37-1.81,1.23-2.14M46.87,53.57c1.26-.78,3.06.34,2.94,1.81.03,1.54-2,2.52-3.17,1.51-1.14-.79-1-2.69.23-3.32M50.42,62.35c-.56-.85.1-1.87,1.01-2.07.73.15,1.51.7,1.36,1.55-.11,1.15-1.79,1.5-2.37.52M22.23,61.61c.22-.67.77-1.34,1.56-1.17,1.16.08,1.5,1.83.49,2.36-.91.61-1.97-.23-2.05-1.19M35.83,62.38c.22-1,1.51-1.48,2.36-.95.56.24.73.87.87,1.4-.08.28-.15.56-.21.84-.35.41-.8.83-1.38.81-1.08.13-2.05-1.09-1.64-2.1"/>
</svg>