<?xml version="1.0" encoding="UTF-8"?>
<svg id="ELEMENTS" xmlns="http://www.w3.org/2000/svg" viewBox="0 0 75 75">
  <defs>
    <style>
      .cls-1 {
        fill: none;
      }

      .cls-1, .cls-2, .cls-3 {
        stroke-width: 0px;
      }

      .cls-2 {
        fill: #000;
      }

      .cls-3 {
        fill: #fff;
      }
    </style>
  </defs>
  <circle class="cls-3" cx="37.5" cy="37.5" r="36.3"/>
  <g>
    <path id="Path_8583" data-name="Path 8583" class="cls-1" d="M46.7,23.09s-.03.04-.04.06"/>
    <path id="Path_8584" data-name="Path 8584" class="cls-1" d="M58.28,34.86c-.04.12-.06.18-.06.18"/>
    <path id="Path_8588" data-name="Path 8588" class="cls-1" d="M28.87,23.43c-.09-.12-.18-.25-.27-.37"/>
    <path id="Path_8589" data-name="Path 8589" class="cls-1" d="M16.53,35.21c.1.3.16.46.16.46"/>
    <g>
      <path class="cls-2" d="M42.64,56.36l-.11.16c-.09.15-.11.16-.19.14-.05,0-.63-.02-1.28-.02h-1.18l-.26-.4-.26-.4-.19-.02-.19-.02v-.92s-.02-.92-.02-.92l.21-.08c.73-.26,1.53-.82,1.97-1.38.22-.31.4-.65.51-1.01.08-.26.13-.92.13-1.69,0-.54-.06-.76-.27-1.04-.18-.25-.33-.36-.66-.52l-.27-.13h-2.45c-2.08,0-2.47,0-2.62.04-.44.11-.78.46-.91.9-.06.19-.06.27-.05,1.14.02.88.02.95.09,1.14.34.95,1.26,1.73,2.82,2.42l.48.21v.92s.02.92.02.92h-.37l-.29.44-.28.44-1.1-.03c-.6-.02-1.27-.04-1.48-.04l-.38-.02-.04-.11-.04-.11h-1.1s-1.1-.02-1.1-.02v.11c0,.05.02.11.06.15.03.02.16.13.29.25l.23.2.03.28c.02.15.06.42.1.6l.07.33.27-.03.27-.02.06.26c.11.47.27.92.49,1.34.2.41.29.55.32.52,0,0,.08-.11.16-.24l.15-.23-.03-1.25c-.02-.7-.03-1.26-.02-1.27,0,0,.27.03.58.07,1.92.27,3.86.32,5.78.12.47-.04,1.53-.18,1.68-.22l.07-.02v2.44l.18.3.18.3.05-.12c.03-.07.22-.54.43-1.04l.38-.92h.28c.1,0,.18,0,.28,0,0-.02.11-.42.24-.92.13-.49.25-.92.27-.92,0-.03-.23-.04-1.01-.04h-1.01Z"/>
      <path class="cls-2" d="M37.5,0C16.79,0,0,16.79,0,37.5s16.79,37.5,37.5,37.5,37.5-16.79,37.5-37.5S58.21,0,37.5,0ZM61.94,49.74c-.15,1.01-.47,2.03-.97,3.16-.07.16-.6,1.1-.73,1.3-.04.06-.09.13-.11.2,0,.02-.02.04-.04.04s-.04.03-.04.04-.02.04-.04.04-.03.02-.02.04c0,.02,0,.04-.03.05-.04,0-.04.03-.04.04,0,.02,0,.04-.04.04-.03,0-.04.04-.04.04.02.02,0,.04-.04.06-.04.02-.05.04-.04.04.06,0-.75,1.09-1.29,1.73-.76.86-1.57,1.67-2.43,2.44-5.49,4.77-13.74,8.04-19.33,7.66-5.36-.37-12.44-3.57-17.66-8.01-3.19-2.71-5.22-5.48-5.88-7.99-.18-.7-.23-1.27-.19-2.24.03,0,.06.01.1,0,2.36-.34,8.34-.63,12.83,4.2.12.13.29.2.46.2.04,0,.08,0,.12-.01.21-.04.39-.19.46-.39.12-.32,3.09-7.87,11-7.87s9.58,7.47,9.65,7.79c.05.21.2.39.41.46.21.07.43.03.6-.11,5.34-4.4,11.07-4.34,13.28-4.11.03,0,.07,0,.1-.01,0,.36-.04.85-.07,1.17Z"/>
      <path id="Path_8578" data-name="Path 8578" class="cls-2" d="M39.99,58.9c-.17.1-.28.14-.31.12-.03,0-.15-.11-.28-.21l-.24-.19-.25.26c-.54.58-.55.61-.71.62-.25.03-.3-.02-.6-.47-.16-.23-.28-.42-.28-.42,0,0-.11-.02-.25-.03l-.25-.03-.11.24-.11.24-.2-.06c-.16-.05-.32-.11-.47-.18l-.26-.13v-.5h2.34s2.34.02,2.34.02v.24c.02.28.03.27-.36.49Z"/>
    </g>
    <g>
      <path class="cls-3" d="M26.98,35.83h.03s.04,0,.04,0c.7.04,1.57.06,1.76.02.12-.03.23-.03.32-.04.15,0,.37-.01.62-1.09.08-.33.03-.62-.17-.91-.5-.73-1.67-1.1-1.95-1.14-.02,0-2.15-.11-2.46,1.86-.09.55.11.76.17.83.39.44,1.34.48,1.64.47Z"/>
      <path class="cls-3" d="M47.76,35.83h.03s.04,0,.04,0c.7.04,1.57.06,1.76.02.12-.03.23-.03.32-.04.15,0,.37-.01.62-1.09.08-.33.03-.62-.17-.91-.5-.73-1.67-1.1-1.95-1.14-.02,0-2.15-.11-2.46,1.86-.09.55.11.76.17.83.39.44,1.34.48,1.64.47Z"/>
      <path class="cls-3" d="M61.93,47.26c-.02-.4-.05-.95-.08-1.22-.38-4-1.4-7.26-3.34-10.72-.08-.13-.15-.26-.19-.37-.02-.03-.03-.05-.04-.07.27-.82,1.39-4.24,2.28-8.16,1.21-5.32,1.97-11.53-.37-13.4,0,0-4.05-.3-9.47,5.02-1.47,1.47-2.82,3.06-4.01,4.76l-.38-.12c-2.18-.71-4.45-1.15-6.73-1.3-.69-.05-3.25-.05-4.09,0-2.53.17-4.46.55-6.66,1.31-.09.04-.17.06-.25.09-1.24-1.69-2.62-3.28-4.15-4.73-5.64-5.34-9.84-5.04-9.84-5.04-2.48,1.93-1.64,8.43-.35,13.92.85,3.64,1.88,6.83,2.27,7.99-.03.06-.06.13-.1.19-1.95,3.95-3.04,7.76-3.37,11.79,2.53-.34,8.42-.54,13.13,3.95,1.11-2.19,4.67-7.82,11.78-7.82s9.79,5.59,10.59,7.85c5.41-4.07,11.04-4.06,13.37-3.83,0-.03,0-.05,0-.07ZM27.81,31.44c.6.09,2.08.61,2.81,1.68.39.57.51,1.23.35,1.9-.42,1.76-1.11,2.02-1.8,2.04-.21.04-.55.06-.92.06-.46,0-.95-.02-1.24-.04-.3,0-1.78.03-2.6-.88-.3-.33-.63-.93-.48-1.88.4-2.52,2.83-3.04,3.88-2.9ZM18.2,31.89s-3.29-8.23-2.45-12.93c.14-.79.4-1.49.82-2.02,0,0,3.73.37,9.76,7.06,0,0-1.14.55-2.68,1.73,0,0,0,0-.02,0-1.66,1.28-3.79,3.3-5.43,6.15ZM32.17,44.12c-.05.11-.32.22-.62.26-.3.04-1.22.02-1.73-.04-1.87-.25-3.85-.82-5.29-1.52-.81-.4-1.39-.79-1.82-1.22l-.25-.26-.03-.33c-.04-.58-.04-1.5.04-1.82.04-.27.14-.54.27-.77q.07-.09.39-.09c.39,0,.71.06,1.24.23,1.08.33,2.69,1.14,4.66,2.32,1.62.97,2.23,1.44,2.69,2.1.32.4.53.98.45,1.15ZM44.72,34.33c.4-2.52,2.83-3.04,3.88-2.9.6.09,2.08.61,2.81,1.68.39.57.51,1.23.35,1.9-.42,1.76-1.11,2.02-1.8,2.04-.21.04-.55.06-.92.06-.46,0-.95-.02-1.24-.04-.3,0-1.78.03-2.6-.88-.3-.33-.63-.93-.48-1.88ZM52.91,41.2c-.03.14-.44.56-.85.87-1.22.89-3.39,1.72-5.6,2.11-1.26.23-2.52.26-2.9.08-.25-.12-.28-.22-.19-.54.18-.66.78-1.38,1.72-2.06.48-.34,2.4-1.51,3.3-2.01,1.48-.81,2.68-1.29,3.49-1.41.26-.04.56-.04.66,0,.16.06.33.53.4,1.09.04.3.02,1.62-.03,1.86ZM51.45,25.73h-.02c-1.48-1.19-2.59-1.74-2.59-1.74,5.82-6.69,9.42-7.06,9.42-7.06.4.54.65,1.22.79,2.02.82,4.7-2.36,12.94-2.36,12.94-1.33-2.37-3.12-4.46-5.25-6.15Z"/>
    </g>
  </g>
</svg>