<?xml version="1.0" encoding="UTF-8"?>
<svg id="ELEMENTS" xmlns="http://www.w3.org/2000/svg" viewBox="0 0 75 75">
  <defs>
    <style>
      .cls-1 {
        fill: #000;
      }

      .cls-1, .cls-2 {
        stroke-width: 0px;
      }

      .cls-2 {
        fill: #fff;
      }
    </style>
  </defs>
  <circle class="cls-1" cx="34.11" cy="37.45" r="37.5" transform="translate(-14.88 24.56) rotate(-32.93)"/>
  <path class="cls-2" d="M26.82,16.71c4.39-1.64,9.33-1.65,13.81-.3,5.82,1.81,10.74,6.2,13.31,11.72.71,1.57,1.39,3.21,1.46,4.96-3.27-1.9-6.86-3.13-10.46-4.25-5.75-2.07-11.77-3.51-17.22-6.36-1.27-.76-2.88-1.53-3.23-3.11-.14-1.37,1.3-2.13,2.34-2.66Z"/>
  <path class="cls-2" d="M31.18,59.03c-6.11-.78-11.74-4.39-15.14-9.5-3.84-5.64-4.8-13.13-2.48-19.55,1.27-3.45,3.36-6.65,6.19-9.03.72,5.92,3.24,11.64,7.4,15.95,4.99,5.19,12.1,8.37,19.34,8.25,2.87.09,5.68-.57,8.48-1.11-2.76,9.96-13.67,16.57-23.79,14.98Z"/>
  <path class="cls-2" d="M55.49,39.85c-1.61-.68-2.91-1.88-4.28-2.94-2.22-1.85-4.47-3.93-5.7-6.57,2.98.95,6.27,2.1,9.25,3.83l.79.46c.18,1.74.24,3.49-.06,5.22Z"/>
</svg>