<svg xmlns="http://www.w3.org/2000/svg" width="231" height="305" fill="none" viewBox="0 0 231 305">
  <path fill="#fff" d="M229.804 122.641c4.771-32.05-19.608-49.253-52.941-60.765l10.784-43.43-26.405-6.607-10.523 42.254c-6.928-1.7-14.052-3.336-21.177-4.971l10.589-42.516L113.725 0l-10.849 43.366c-5.752-1.308-11.373-2.617-16.863-3.99v-.13l-36.405-9.093-6.994 28.191s19.608 4.514 19.15 4.775c10.72 2.682 12.615 9.746 12.288 15.371L61.7 128.135l-17.255 69.268c-1.307 3.27-4.64 8.111-12.091 6.279.261.393-19.216-4.775-19.216-4.775L0 229.192l34.38 8.568c6.404 1.635 12.679 3.27 18.823 4.84l-10.915 43.889 26.405 6.607 10.85-43.432a922.704 922.704 0 0 0 21.045 5.495l-10.784 43.235L116.209 305l10.915-43.824c45.033 8.503 78.889 5.102 93.137-35.647 11.504-32.835-.588-51.739-24.248-64.101 17.255-3.99 30.261-15.371 33.725-38.787h.066Zm-60.327 84.639c-8.17 32.835-63.399 15.109-81.307 10.596l14.51-58.148c17.908 4.447 75.294 13.343 66.797 47.552Zm8.17-85.162c-7.451 29.826-53.399 14.651-68.301 10.988l13.138-52.784c14.902 3.728 62.941 10.661 55.163 41.796Z"/>
</svg>
