<svg xmlns="http://www.w3.org/2000/svg" width="265" height="265" fill="none" viewBox="0 0 265 265">
  <path fill="#FF7400" d="M243.06 87.82c-7.49 2.03-11.92 9.76-9.89 17.25 2.41 8.88 3.63 18.1 3.63 27.4 0 27.87-10.85 54.07-30.56 73.78s-45.91 30.56-73.78 30.56c-27.87 0-54.07-10.85-73.78-30.56s-30.56-45.91-30.56-73.78c0-27.87 10.85-54.07 30.56-73.78s45.91-30.56 73.78-30.56c13.95 0 27.48 2.7 40.22 8.03 7.16 2.99 15.4-.38 18.4-7.55 3-7.16-.38-15.4-7.55-18.4C167.33 3.44 150.15 0 132.46 0 114.77 0 97.24 3.5 80.9 10.42 65.12 17.09 50.96 26.64 38.8 38.8S17.09 65.13 10.42 80.9C3.51 97.24 0 114.59 0 132.46c0 17.87 3.5 35.23 10.42 51.56 6.67 15.78 16.22 29.94 28.38 42.1s26.33 21.71 42.1 28.38c16.34 6.91 33.69 10.42 51.56 10.42 17.87 0 35.23-3.5 51.56-10.42 15.78-6.67 29.94-16.22 42.1-28.38s21.71-26.33 28.38-42.1c6.91-16.34 10.42-33.69 10.42-51.56 0-11.79-1.55-23.48-4.61-34.76-2.03-7.49-9.75-11.92-17.25-9.89v.01Z"/>
  <path fill="#fff" d="M88.55 116.14c-5.49-5.49-14.39-5.49-19.88 0-5.49 5.49-5.49 14.39 0 19.88l46.96 46.96c2.64 2.64 6.22 4.12 9.94 4.12.26 0 .52 0 .78-.02 3.99-.22 7.7-2.13 10.2-5.26L236.93 56.28c4.85-6.06 3.86-14.91-2.2-19.76-6.06-4.85-14.91-3.86-19.76 2.2l-90.56 113.27-35.85-35.85h-.01Z"/>
</svg>
