<svg xmlns="http://www.w3.org/2000/svg" width="432" height="341" fill="none" viewBox="0 0 432 341">
  <path fill="#000" d="M84.255 46.3c-4.92 19.73-24.9 31.73-44.63 26.81-19.72-4.92-31.72-24.9-26.8-44.62 4.92-19.73 24.89-31.73 44.62-26.82 19.73 4.92 31.73 24.9 26.81 44.63Z"/>
  <path fill="#fff" d="M64.775 32.15c.73-4.9-3-7.53-8.1-9.29l1.65-6.64-4.04-1.01-1.61 6.46c-1.06-.26-2.15-.51-3.24-.76l1.62-6.5-4.04-1.01-1.66 6.63c-.88-.2-1.74-.4-2.58-.61v-.02l-5.57-1.39-1.07 4.31s3 .69 2.93.73c1.64.41 1.93 1.49 1.88 2.35l-1.89 7.59-2.64 10.59c-.2.5-.71 1.24-1.85.96.04.06-2.94-.73-2.94-.73l-2.01 4.63 5.26 1.31c.98.25 1.94.5 2.88.74l-1.67 6.71 4.04 1.01 1.66-6.64c1.1.3 2.17.58 3.22.84l-1.65 6.61 4.04 1.01 1.67-6.7c6.89 1.3 12.07.78 14.25-5.45 1.76-5.02-.09-7.91-3.71-9.8 2.64-.61 4.63-2.35 5.16-5.93h.01Zm-9.24 12.94c-1.25 5.02-9.7 2.31-12.44 1.62l2.22-8.89c2.74.68 11.52 2.04 10.22 7.27Zm1.25-13.02c-1.14 4.56-8.17 2.24-10.45 1.68l2.01-8.07c2.28.57 9.63 1.63 8.44 6.39Z"/>
  <path fill="#000" d="M160.178 74.211c20.335 0 36.82-16.485 36.82-36.82S180.513.571 160.178.571s-36.82 16.485-36.82 36.82 16.485 36.82 36.82 36.82Z"/>
  <path fill="#8F8F8F" d="M160.538 9.225v20.41l17.25 7.71-17.25-28.12Z"/>
  <path fill="#fff" d="m160.538 9.225-17.26 28.12 17.26-7.71V9.225Z"/>
  <path fill="#8F8F8F" d="M160.538 50.575v13.87l17.26-23.89-17.26 10.02Z"/>
  <path fill="#fff" d="M160.538 64.445v-13.87l-17.26-10.01 17.26 23.89v-.01Z"/>
  <path fill="#2D2D2D" d="m160.538 47.355 17.25-10.02-17.25-7.7v17.72Z"/>
  <path fill="#8F8F8F" d="m143.288 37.345 17.26 10.02v-17.72l-17.26 7.7Z"/>
  <path fill="#000" d="M271.818 74.211c20.335 0 36.82-16.485 36.82-36.82S292.153.571 271.818.571s-36.82 16.485-36.82 36.82 16.485 36.82 36.82 36.82Z"/>
  <path fill="#fff" d="M254.378 48.051c.31-.31.74-.49 1.2-.49h41.23c.75 0 1.13.91.6 1.44l-8.14 8.14c-.31.31-.74.49-1.2.49h-41.23c-.75 0-1.13-.91-.6-1.44l8.14-8.14Zm0-30.41c.32-.31.75-.49 1.2-.49h41.23c.75 0 1.13.91.6 1.44l-8.14 8.14c-.31.31-.74.49-1.2.49h-41.23c-.75 0-1.13-.91-.6-1.44l8.14-8.14Zm34.88 15.11c-.31-.31-.74-.49-1.2-.49h-41.23c-.75 0-1.13.91-.6 1.44l8.14 8.14c.31.31.74.49 1.2.49h41.23c.75 0 1.13-.91.6-1.44l-8.14-8.14Z"/>
  <path fill="#000" d="M383.458 74.211c20.335 0 36.82-16.485 36.82-36.82S403.793.571 383.458.571s-36.82 16.485-36.82 36.82 16.485 36.82 36.82 36.82Z"/>
  <path fill="#fff" fill-rule="evenodd" d="M373.028 52.051h-7.15c-1.5 0-2.24 0-2.7-.29-.49-.32-.79-.84-.82-1.42-.03-.53.34-1.18 1.09-2.49l17.64-31.1c.75-1.32 1.13-1.98 1.61-2.23.52-.26 1.13-.26 1.65 0 .48.24.86.9 1.61 2.23l3.63 6.33.02.03c.81 1.42 1.22 2.14 1.4 2.89.2.82.2 1.69 0 2.51-.18.76-.59 1.48-1.41 2.92l-9.27 16.38-.02.04c-.82 1.43-1.23 2.15-1.8 2.7-.62.6-1.37 1.03-2.2 1.28-.75.21-1.59.21-3.27.21l-.01.01Zm18.04 0h10.24c1.51 0 2.27 0 2.72-.3.49-.32.8-.85.82-1.43.03-.52-.34-1.14-1.05-2.37-.02-.04-.05-.08-.07-.13l-5.13-8.77-.06-.1c-.72-1.22-1.08-1.83-1.55-2.07-.52-.26-1.12-.26-1.64 0-.47.24-.85.89-1.6 2.18l-5.11 8.77-.02.03c-.75 1.29-1.12 1.94-1.1 2.47.04.58.33 1.11.82 1.43.44.29 1.2.29 2.71.29h.02Z" clip-rule="evenodd"/>
  <path fill="#000" d="M48.54 89.212c20.34 0 36.82 16.49 36.82 36.82 0 20.33-16.49 36.82-36.82 36.82-20.33 0-36.82-16.49-36.82-36.82 0-20.33 16.49-36.82 36.82-36.82Z"/>
  <path fill="#fff" d="m39.02 122.072 5.57-5.55 1.18-1.18 2.78-2.78 9.49 9.51 5.52-5.55-15.01-15.04-15.06 15.04 5.53 5.55Z"/>
  <path fill="#fff" d="m48.558 120.475-5.544 5.544 5.544 5.544 5.544-5.544-5.544-5.544Z"/>
  <path fill="#fff" d="m58.04 130.002-9.49 9.49-3.33-3.34-.62-.61-5.58-5.54-5.53 5.52 15.06 15.03 15.01-15.03-5.52-5.52Zm-28.504-9.511-5.544 5.544 5.544 5.544 5.544-5.544-5.544-5.544Zm38.017-.007-5.544 5.544 5.544 5.544 5.544-5.544-5.544-5.544Z"/>
  <path fill="#000" d="M160.18 162.852c20.335 0 36.82-16.485 36.82-36.82s-16.485-36.82-36.82-36.82-36.82 16.485-36.82 36.82 16.485 36.82 36.82 36.82Z"/>
  <path fill="#fff" d="M159.48 99.682c1.25-.65 2.78.86 2.11 2.11-.39 1.02-1.85 1.29-2.6.51-.79-.74-.53-2.22.48-2.62m-13.44 1.45c.76-.31 1.72.38 1.64 1.21.08.9-1.02 1.56-1.79 1.13-1.03-.4-.91-2.06.15-2.34Zm27.54 2.37c-1.19-.14-1.37-2.01-.23-2.39.89-.43 1.7.38 1.83 1.22-.19.72-.79 1.37-1.6 1.17Zm-24.48 3.36c1.27-.8 3.08.39 2.89 1.87-.07 1.49-2.04 2.35-3.16 1.35-1.08-.79-.92-2.6.27-3.21m19.39.84c.57-1.46 2.86-1.5 3.51-.08.64 1.11-.15 2.48-1.28 2.85-1.5.28-2.93-1.35-2.22-2.77m-10.63 2.68c-.01-1.25 1.13-2.19 2.32-2.28.79.16 1.65.5 1.99 1.29.63 1.1.07 2.62-1.07 3.12-.52.29-1.14.18-1.71.15-.87-.43-1.6-1.26-1.53-2.29m-20 1.84c1.16-.71 2.72.59 2.29 1.85-.24 1.09-1.71 1.53-2.54.84-.89-.65-.75-2.22.26-2.69m42.94 0c.98-.76 2.61.11 2.49 1.36.07 1.13-1.34 1.99-2.31 1.4-1.08-.48-1.19-2.14-.18-2.76Zm-17.33 2.26c1.62-.58 3.55.11 4.48 1.56 1.22 1.77.57 4.47-1.32 5.48-1.96 1.2-4.83.18-5.56-2.01-.82-1.96.38-4.42 2.4-5.03Zm-9.52.19c1.8-.85 4.22-.14 5.09 1.7 1.02 1.79.23 4.29-1.6 5.21-1.83 1.04-4.42.25-5.3-1.67-.99-1.86-.11-4.39 1.81-5.24Zm-9.54 3.26c.14-1.16 1.23-1.91 2.33-1.99 1.19.14 2.14 1.07 2.27 2.27-.08 1.19-1 2.36-2.26 2.35-1.39.12-2.61-1.26-2.34-2.63Zm28.18-1.74c1.43-.83 3.41.38 3.34 2.02.1 1.74-2.09 2.96-3.51 1.94-1.48-.85-1.36-3.24.17-3.96Zm-22.52 6.12c1.67-.46 3.57.33 4.39 1.86.9 1.54.53 3.69-.86 4.82-1.78 1.66-5.08.99-6.03-1.27-1.09-2.08.23-4.86 2.5-5.41Zm18.07-.01c1.62-.46 3.53.16 4.4 1.64 1.15 1.69.6 4.21-1.11 5.3-1.8 1.26-4.58.6-5.57-1.38-1.2-2.05 0-4.94 2.29-5.56m-28.81 1.93c1.44-.55 3.04 1.04 2.45 2.47-.36 1.3-2.19 1.78-3.14.82-1.11-.9-.7-2.91.68-3.3m39.06 2.08c-.04-1.19.83-2.25 2.06-2.32.99.16 1.95.95 1.87 2.03.09 1.42-1.62 2.38-2.83 1.72-.57-.29-.86-.87-1.1-1.43Zm-46.13-1.37c.87-.38 1.94.37 1.74 1.34-.05 1.09-1.66 1.51-2.25.6-.52-.63-.21-1.61.51-1.93v-.01Zm54.65-.02c.61-.43 1.59-.12 1.83.59.41.78-.34 1.85-1.22 1.71-1.23.11-1.63-1.76-.61-2.3Zm-32.13 5.23c2.28-.59 4.73 1.31 4.75 3.66.15 2.37-2.27 4.48-4.6 3.93-1.8-.29-3.22-2.03-3.16-3.85 0-1.74 1.31-3.37 3.02-3.73m9.02-.02c2.31-.65 4.84 1.29 4.8 3.69.12 2.33-2.22 4.36-4.5 3.9-2.15-.28-3.74-2.64-3.14-4.73.3-1.39 1.47-2.52 2.84-2.86Zm-17.42 1.45c1.6-.27 3.1 1.51 2.45 3.03-.47 1.62-2.83 2.06-3.88.74-1.22-1.27-.31-3.6 1.42-3.77m26.5.07c1.43-.6 3.18.64 3.07 2.19.06 1.71-2.11 2.88-3.5 1.89-1.58-.89-1.29-3.53.43-4.08Zm7.41 7.43c-.56-1.04.46-2.42 1.61-2.23.58 0 .98.44 1.35.83.08.62.2 1.35-.31 1.83-.7.88-2.27.63-2.65-.42m-42.44-1.95c1.08-.72 2.64.35 2.4 1.62-.13 1.12-1.54 1.76-2.47 1.12-1-.58-.96-2.22.07-2.74Zm21.37 2.34c1.42-.62 3.22.61 3.09 2.17.1 1.72-2.13 2.92-3.51 1.88-1.54-.89-1.28-3.5.43-4.05m-9.91 2.31c1.21-.63 2.83.46 2.72 1.81.04 1.11-1.05 2.05-2.14 1.89-.91-.02-1.5-.83-1.79-1.6.01-.84.36-1.78 1.21-2.1Zm20.05.02c1.24-.77 3 .33 2.89 1.78.03 1.51-1.96 2.48-3.12 1.48-1.12-.78-.98-2.64.23-3.26Zm3.49 8.62c-.55-.83.1-1.84.99-2.03.72.15 1.48.69 1.33 1.52-.11 1.13-1.76 1.48-2.32.51Zm-27.68-.73c.22-.66.75-1.32 1.53-1.15 1.14.08 1.47 1.79.48 2.32-.89.6-1.93-.22-2.01-1.17Zm13.35.76c.22-.98 1.48-1.45 2.32-.93.55.24.71.85.85 1.38-.08.27-.14.55-.21.82-.34.41-.78.81-1.35.8-1.06.12-2.01-1.07-1.61-2.06m113.28 11.21c19.689 0 35.65-15.961 35.65-35.65s-15.961-35.65-35.65-35.65-35.65 15.961-35.65 35.65 15.961 35.65 35.65 35.65Z"/>
  <path fill="#000" d="m276.87 144.552-.1.16c-.09.15-.1.16-.19.14-.05 0-.61-.02-1.25-.02h-1.16l-.25-.39-.26-.39-.19-.02-.19-.02v-.91l-.02-.91.21-.08c.72-.25 1.5-.8 1.94-1.36.22-.3.39-.64.5-.99.08-.26.13-.91.13-1.66 0-.53-.06-.74-.27-1.02-.18-.24-.33-.35-.65-.51l-.27-.13h-2.4c-2.04 0-2.43 0-2.58.03-.43.11-.77.45-.89.88-.06.19-.06.27-.05 1.12.02.86.02.93.09 1.12.34.93 1.24 1.7 2.77 2.38l.48.21v.9l.02.9h-.36l-.29.43-.28.43-1.08-.03c-.59-.02-1.24-.03-1.45-.04l-.37-.02-.03-.11-.03-.11h-1.08l-1.08-.02v.1c0 .05.02.11.06.15.03.02.16.13.29.24l.22.2.03.28c.02.15.06.41.1.59l.07.32.27-.03.27-.02.06.25c.11.46.27.9.48 1.31.2.4.29.54.31.51 0 0 .08-.11.16-.23l.15-.22-.03-1.23c-.02-.68-.03-1.24-.02-1.24 0 0 .27.03.57.07 1.88.27 3.79.31 5.68.12.46-.04 1.5-.18 1.65-.22l.07-.02v2.39l.18.29.18.29.05-.12c.03-.07.22-.53.42-1.02l.37-.91h.56c0-.02.1-.41.23-.91.13-.48.24-.91.27-.9 0-.03-.22-.03-.99-.03h-.99l-.04.03Z"/>
  <path fill="#000" d="M271.82 89.212c-20.34 0-36.82 16.49-36.82 36.82 0 20.33 16.49 36.82 36.82 36.82 20.33 0 36.82-16.49 36.82-36.82 0-20.33-16.49-36.82-36.82-36.82Zm24 48.84c-.15.99-.46 1.99-.95 3.1-.07.16-.59 1.08-.72 1.28-.04.06-.09.13-.11.2 0 .02-.02.03-.03.03-.01 0-.03.03-.03.04 0 .01-.02.04-.03.04-.01 0-.03.02-.02.03 0 .02 0 .04-.03.05-.03 0-.04.03-.03.04 0 .02 0 .03-.03.04-.03 0-.04.03-.03.04.02.02 0 .04-.03.06-.03.02-.05.03-.03.03.06 0-.73 1.07-1.27 1.69-.74.85-1.54 1.64-2.39 2.39-5.39 4.69-13.49 7.89-18.98 7.52-5.26-.36-12.22-3.51-17.34-7.87-3.13-2.66-5.13-5.38-5.77-7.84-.18-.68-.22-1.25-.19-2.2.03 0 .06.01.1 0 2.32-.34 8.19-.61 12.59 4.12.12.13.28.2.45.2.04 0 .08 0 .12-.01.21-.04.38-.19.46-.38.12-.32 3.04-7.73 10.8-7.73 7.76 0 9.4 7.33 9.47 7.64.05.21.2.38.4.45s.43.03.59-.11c5.24-4.32 10.86-4.27 13.04-4.04.03 0 .07 0 .1-.01 0 .35-.03.83-.07 1.15l-.04.05Z"/>
  <path fill="#000" d="M274.27 147.042c-.16.1-.28.14-.3.12-.03 0-.15-.11-.28-.21l-.23-.19-.24.26c-.53.57-.54.6-.7.61-.24.03-.29-.02-.59-.46-.16-.22-.28-.41-.28-.41s-.11-.02-.24-.03l-.24-.03-.11.23-.11.23-.2-.06c-.16-.05-.31-.11-.46-.18l-.26-.13v-.49h2.3l2.3.02v.23c.02.28.03.27-.35.48l-.01.01Z"/>
  <path fill="#fff" d="M261.5 124.392h.07c.68.04 1.54.06 1.72.02.12-.03.23-.03.32-.04.14 0 .36-.01.61-1.07.08-.33.03-.61-.16-.89-.49-.72-1.64-1.08-1.92-1.12-.02 0-2.11-.11-2.42 1.82-.09.54.11.75.17.82.39.43 1.32.47 1.61.46Zm20.4 0h.07c.68.04 1.54.06 1.72.02.12-.03.23-.03.32-.04.14 0 .36-.01.61-1.07.08-.33.03-.61-.16-.89-.49-.72-1.64-1.08-1.92-1.12-.02 0-2.11-.11-2.42 1.82-.09.54.11.75.17.82.39.43 1.32.47 1.61.46Z"/>
  <path fill="#fff" d="M295.81 135.612a26.7 26.7 0 0 0-.08-1.2c-.37-3.92-1.37-7.13-3.28-10.53a2.57 2.57 0 0 1-.19-.36c-.02-.03-.03-.05-.03-.07.27-.8 1.37-4.17 2.24-8.01 1.18-5.22 1.94-11.32-.36-13.16 0 0-3.98-.29-9.3 4.93a35.24 35.24 0 0 0-3.94 4.68l-.37-.12a27.15 27.15 0 0 0-6.6-1.28c-.67-.05-3.19-.05-4.01 0-2.48.16-4.38.54-6.54 1.29-.09.03-.16.06-.24.09a35.22 35.22 0 0 0-4.07-4.64c-5.54-5.25-9.67-4.94-9.67-4.94-2.44 1.89-1.61 8.27-.35 13.67.83 3.57 1.85 6.71 2.23 7.84-.03.06-.06.13-.1.19-1.91 3.88-2.98 7.62-3.31 11.57 2.48-.34 8.27-.53 12.89 3.88 1.09-2.15 4.58-7.68 11.56-7.68s9.62 5.49 10.4 7.7c5.31-4 10.84-3.98 13.13-3.76v-.07l-.01-.02Zm-33.5-15.54c.59.09 2.04.6 2.76 1.65.38.56.5 1.21.34 1.87-.41 1.73-1.09 1.98-1.76 2.01-.2.04-.54.06-.91.06-.45 0-.93-.02-1.21-.04-.29 0-1.75.03-2.55-.86-.3-.33-.62-.91-.47-1.84.4-2.48 2.78-2.98 3.8-2.84v-.01Zm-9.44.45s-3.23-8.08-2.4-12.7c.14-.78.4-1.46.8-1.98 0 0 3.67.36 9.58 6.93 0 0-1.12.54-2.63 1.7h-.02c-1.63 1.25-3.73 3.24-5.33 6.03v.02Zm13.72 12c-.05.1-.31.22-.61.26-.29.04-1.19.02-1.7-.04-1.83-.24-3.78-.8-5.2-1.5-.8-.39-1.37-.78-1.79-1.2l-.24-.25-.03-.33c-.04-.57-.03-1.47.03-1.79.04-.27.14-.53.27-.76.047-.06.173-.09.38-.09.38 0 .7.06 1.22.22 1.06.33 2.65 1.12 4.57 2.28 1.59.95 2.19 1.42 2.65 2.06.31.4.52.96.44 1.13l.01.01Zm12.32-9.6c.4-2.48 2.78-2.98 3.8-2.84.59.09 2.04.6 2.76 1.65.38.56.5 1.21.34 1.87-.41 1.73-1.09 1.98-1.76 2.01-.2.04-.54.06-.91.06-.45 0-.93-.02-1.21-.04-.29 0-1.75.03-2.55-.86-.3-.33-.62-.91-.47-1.84v-.01Zm8.05 6.74c-.03.14-.43.55-.84.86-1.19.87-3.33 1.69-5.5 2.07-1.24.22-2.47.26-2.84.08-.24-.12-.28-.22-.19-.53.18-.65.77-1.36 1.69-2.02.47-.34 2.36-1.49 3.24-1.97 1.45-.8 2.63-1.27 3.42-1.38.25-.03.55-.04.65 0 .16.06.33.52.4 1.07.03.29.02 1.59-.03 1.82Zm-1.44-15.19h-.02c-1.45-1.17-2.54-1.71-2.54-1.71 5.71-6.57 9.25-6.93 9.25-6.93.39.53.64 1.2.78 1.98.8 4.62-2.32 12.71-2.32 12.71a20.617 20.617 0 0 0-5.15-6.04v-.01Z"/>
  <path fill="#000" fill-rule="evenodd" d="M383.46 89.212c20.33.01 36.81 16.49 36.82 36.82-.01 20.33-16.49 36.81-36.82 36.82-20.33-.01-36.81-16.49-36.82-36.82.07-20.32 16.5-36.82 36.82-36.82Z" clip-rule="evenodd"/>
  <path fill="#fff" fill-rule="evenodd" d="m377.09 105.632-5.78 21.6-4.57 1.8-1.65 6.15 4.65-1.57-3.08 12.75 33.3.07 2.02-8.17h-20.24l2.62-9.83 5.47-2.33 1.58-5.99-5.32 1.8 4.19-16.05-13.19-.23Z" clip-rule="evenodd"/>
  <path fill="#000" d="M48.54 177.852c20.33 0 36.82 16.49 36.82 36.82 0 20.33-16.49 36.82-36.82 36.82-20.33 0-36.82-16.48-36.82-36.82s16.48-36.82 36.82-36.82Z"/>
  <path fill="#fff" d="M53.09 209.762v-5.48h12.53v-8.35H31.51v8.35h12.53v5.47c-10.18.47-17.84 2.48-17.84 4.9 0 2.42 7.66 4.43 17.84 4.9v17.55h9.06v-17.55c10.16-.47 17.8-2.48 17.8-4.9 0-2.42-7.64-4.43-17.8-4.9m-.01 8.32c-.26.01-1.57.09-4.49.09-2.34 0-3.98-.07-4.56-.1-8.99-.39-15.71-1.96-15.71-3.83s6.71-3.44 15.71-3.84v6.12c.59.04 2.27.14 4.6.14 2.79 0 4.2-.12 4.46-.14v-6.12c8.98.4 15.68 1.97 15.68 3.84 0 1.87-6.7 3.44-15.68 3.84"/>
  <path fill="#000" d="M160.18 251.492c20.41 0 36.82-16.41 36.82-36.82s-16.41-36.82-36.82-36.82a36.725 36.725 0 0 0-36.82 36.82c0 20.41 16.41 36.82 36.82 36.82Z"/>
  <path fill="#fff" d="M170.31 220.502c0-5.37-3.22-7.21-9.67-7.98-4.6-.61-5.52-1.84-5.52-3.99 0-2.15 1.54-3.53 4.6-3.53 2.76 0 4.3.92 5.06 3.22.15.46.61.77 1.08.77h2.46c.61 0 1.08-.46 1.08-1.08v-.15a7.664 7.664 0 0 0-6.9-6.29v-3.68c0-.61-.46-1.08-1.23-1.23h-2.3c-.61 0-1.08.46-1.23 1.23v3.53c-4.6.61-7.52 3.68-7.52 7.52 0 5.06 3.07 7.06 9.51 7.82 4.3.77 5.68 1.69 5.68 4.14 0 2.45-2.15 4.14-5.06 4.14-3.99 0-5.37-1.69-5.83-3.99-.15-.61-.61-.92-1.08-.92h-2.61c-.61 0-1.08.46-1.08 1.08v.15c.61 3.84 3.07 6.6 8.13 7.36v3.68c0 .61.46 1.08 1.23 1.23h2.3c.61 0 1.08-.46 1.23-1.23v-3.68c4.6-.77 7.67-3.99 7.67-8.13v.01Z"/>
  <path fill="#fff" d="M152.36 236.612c-11.97-4.3-18.1-17.64-13.65-29.46 2.3-6.44 7.36-11.35 13.65-13.65.61-.31.92-.77.92-1.54v-2.15c0-.61-.31-1.08-.92-1.23-.15 0-.46 0-.61.15-14.57 4.6-22.55 20.1-17.95 34.67 2.76 8.59 9.36 15.19 17.95 17.95.61.31 1.23 0 1.38-.61.15-.15.15-.31.15-.61v-2.15c0-.46-.46-1.08-.92-1.38v.01Zm16.26-47.87c-.61-.31-1.23 0-1.38.61-.15.15-.15.31-.15.61v2.15c0 .61.46 1.23.92 1.54 11.97 4.3 18.1 17.64 13.65 29.46-2.3 6.44-7.36 11.35-13.65 13.65-.61.31-.92.77-.92 1.54v2.15c0 .61.31 1.08.92 1.23.15 0 .46 0 .61-.15 14.57-4.6 22.55-20.1 17.95-34.67-2.76-8.74-9.51-15.34-17.95-18.1v-.02Z"/>
  <path fill="#000" d="M271.82 251.492c20.335 0 36.82-16.485 36.82-36.82s-16.485-36.82-36.82-36.82S235 194.337 235 214.672s16.485 36.82 36.82 36.82Z"/>
  <path fill="#fff" d="M290.05 193.332h7.45l-15.5 15.35c-5.62 5.56-14.72 5.56-20.33 0l-15.51-15.35h7.46l11.78 11.66a9.163 9.163 0 0 0 12.87 0l11.79-11.66h-.01Zm-36.54 42.68h-7.46l15.6-15.44c5.62-5.56 14.72-5.56 20.33 0l15.6 15.44h-7.45l-11.88-11.76a9.163 9.163 0 0 0-12.87 0l-11.88 11.76h.01Z"/>
  <path fill="#000" d="M383.46 251.492c20.335 0 36.82-16.485 36.82-36.82s-16.485-36.82-36.82-36.82-36.82 16.485-36.82 36.82 16.485 36.82 36.82 36.82Z"/>
  <path fill="#fff" d="M383.459 197.622c5.855 0 10.6-2.762 10.6-6.17 0-3.407-4.745-6.17-10.6-6.17-5.854 0-10.6 2.763-10.6 6.17 0 3.408 4.746 6.17 10.6 6.17Zm0 46.45c5.855 0 10.6-2.762 10.6-6.17 0-3.407-4.745-6.17-10.6-6.17-5.854 0-10.6 2.763-10.6 6.17 0 3.408 4.746 6.17 10.6 6.17ZM358 199.982c2.93-5.07 7.69-7.8 10.64-6.1 2.95 1.7 2.97 7.19.04 12.26-2.93 5.07-7.691 7.8-10.641 6.1-2.95-1.7-2.969-7.19-.039-12.26Zm40.229 23.22c2.93-5.07 7.691-7.8 10.641-6.1 2.95 1.7 2.97 7.19.04 12.26-2.93 5.07-7.691 7.8-10.641 6.1-2.95-1.7-2.97-7.19-.04-12.26Zm-40.19-6.1c2.95-1.7 7.721 1.03 10.641 6.1 2.92 5.07 2.91 10.56-.04 12.26-2.95 1.7-7.72-1.03-10.64-6.1-2.93-5.07-2.911-10.56.039-12.26Zm40.23-23.22c2.95-1.7 7.711 1.03 10.641 6.1 2.93 5.07 2.91 10.56-.04 12.26-2.95 1.7-7.711-1.03-10.641-6.1-2.93-5.07-2.91-10.56.04-12.26Z"/>
  <path fill="#000" d="M160.18 340.132c20.335 0 36.82-16.485 36.82-36.82s-16.485-36.82-36.82-36.82-36.82 16.485-36.82 36.82 16.485 36.82 36.82 36.82Z"/>
  <path fill="#fff" d="M159.688 283.43h-11.44v17.73h-4.7v4.34h4.7v17.73h13.34s18.75 1.57 18.75-19.57-17.93-20.23-20.64-20.23h-.01Zm1.59 32.44h-5.52V305.5h8.28v-4.34h-8.28v-10.37h5.26c1.97 0 11.87.79 11.88 13.02.01 12.23-10.21 12.07-11.63 12.07l.01-.01Z"/>
  <path fill="#000" d="M271.82 340.132c20.335 0 36.82-16.485 36.82-36.82s-16.485-36.82-36.82-36.82S235 282.977 235 303.312s16.485 36.82 36.82 36.82Z"/>
  <path fill="#fff" d="M264.65 282.936c4.31-1.61 9.16-1.62 13.56-.29 5.72 1.77 10.55 6.09 13.07 11.51.7 1.54 1.36 3.15 1.43 4.87-3.21-1.86-6.74-3.07-10.27-4.17-5.65-2.04-11.56-3.45-16.91-6.25-1.24-.74-2.83-1.51-3.17-3.06-.14-1.34 1.28-2.09 2.29-2.61Zm4.289 41.56c-5.99-.77-11.53-4.32-14.87-9.33-3.77-5.54-4.72-12.89-2.43-19.19 1.25-3.39 3.3-6.53 6.08-8.86.71 5.81 3.18 11.43 7.27 15.66 4.9 5.09 11.88 8.22 18.98 8.1 2.82.09 5.58-.56 8.33-1.09-2.71 9.78-13.42 16.27-23.36 14.71Zm23.87-18.83c-1.58-.67-2.86-1.85-4.2-2.89-2.18-1.81-4.39-3.86-5.6-6.45 2.93.93 6.16 2.07 9.09 3.76l.78.45c.18 1.71.24 3.43-.06 5.13h-.01Z"/>
</svg>
