<svg xmlns="http://www.w3.org/2000/svg" width="308" height="306" fill="none" viewBox="0 0 308 306">
  <path fill="#fff" d="m153.541 0 5.15 14.978 15.857.259-12.675 9.518 4.651 15.137-12.983-9.095-12.983 9.095 4.651-15.137-12.676-9.518 15.862-.259L153.541 0ZM21.008 133.789l5.15 14.978 15.857.259-12.675 9.518 4.65 15.137-12.982-9.095-12.983 9.095 4.65-15.137L0 149.026l15.857-.259 5.15-14.978ZM38.182 66.36l5.146 14.974 15.862.263-12.68 9.518 4.656 15.137-12.984-9.095-12.987 9.095 4.655-15.137-12.675-9.518 15.857-.263 5.15-14.974Zm48.723-47.81 5.15 14.977 15.858.26-12.676 9.517 4.651 15.137-12.983-9.09-12.983 9.09 4.651-15.137-12.675-9.518 15.857-.259 5.15-14.978Zm181.738 47.81-5.15 14.974-15.857.263 12.675 9.518-4.651 15.137 12.983-9.095 12.983 9.095-4.651-15.137 12.676-9.518-15.858-.263-5.15-14.974ZM38.182 199.951l5.146 14.974 15.862.263-12.68 9.517 4.656 15.138-12.984-9.095-12.987 9.095 4.655-15.138-12.675-9.517 15.857-.263 5.15-14.974Zm230.461 0-5.15 14.974-15.857.263 12.675 9.517-4.651 15.138 12.983-9.095 12.983 9.095-4.651-15.138 12.676-9.517-15.858-.263-5.15-14.974ZM219.922 18.55l-5.15 14.977-15.858.26 12.676 9.517-4.655 15.137 12.987-9.09 12.983 9.09-4.655-15.137 12.679-9.518-15.861-.259-5.146-14.978ZM86.905 247.758l5.15 14.978 15.858.259-12.676 9.518 4.651 15.137-12.983-9.095-12.983 9.095 4.651-15.137-12.675-9.518 15.857-.259 5.15-14.978Zm133.017 0-5.15 14.978-15.858.259 12.676 9.518-4.655 15.137 12.987-9.095 12.983 9.095-4.655-15.137 12.679-9.518-15.861-.259-5.146-14.978Zm67.07-113.969 5.146 14.978 15.862.259-12.68 9.518 4.655 15.137-12.983-9.095-12.987 9.095 4.655-15.137-12.68-9.518 15.862-.259 5.15-14.978ZM153.541 266.108l5.15 14.978 15.857.259-12.675 9.518L166.524 306l-12.983-9.095L140.558 306l4.651-15.137-12.676-9.518 15.862-.259 5.146-14.978Z"/>
</svg>
