<svg xmlns="http://www.w3.org/2000/svg" width="305" height="305" fill="none" viewBox="0 0 305 305">
  <path fill="#fff" d="M230.362 134.006c7.007-19.243 11.74-37.894 14.929-54.756-16.993-2.415-36.176-3.938-56.648-3.508a340.12 340.12 0 0 0-20.169 1.029 295.97 295.97 0 0 1 13.449 14.554l.002.006a16.204 16.204 0 0 1 6.095-1.193c8.976 0 16.25 7.277 16.25 16.253 0 3.602-1.184 6.917-3.17 9.611.004.007.009.009.013.016a308.048 308.048 0 0 1 21.862 36.548 335.413 335.413 0 0 0 7.383-18.56h.004ZM21.677 74.104a151.409 151.409 0 0 0-20.553 59.843 319.24 319.24 0 0 1 28.544-20.306c-3.385-12.7-6.057-25.914-7.99-39.537Zm25.334 29.369s.007 0 .01-.006a16.467 16.467 0 0 1-.287-2.996c0-8.975 7.275-16.25 16.25-16.25 4.962 0 9.392 2.23 12.372 5.73h.011c23.296-9.648 47.767-16.333 73.212-19.995-21.427-19.066-46.034-35.314-73.775-48.702a153.25 153.25 0 0 0-45.47 41.311c1.642 14.35 4.296 29.977 8.465 46.121a283.064 283.064 0 0 1 9.212-5.213Zm238.531-25.571a153.05 153.05 0 0 0-26.199-34.216 383.696 383.696 0 0 1-3.547 28.035 384.87 384.87 0 0 1 29.744 6.181h.002Zm-96.723-11.208c20.986-.424 40.639 1.155 58.044 3.643a372.599 372.599 0 0 0 4.022-34.363C224.33 13.534 189.996 0 152.501 0c-24.502 0-47.654 5.78-68.168 16.05 28.463 14.428 53.756 31.957 75.665 52.47a330.668 330.668 0 0 1 28.821-1.824v-.002ZM62.984 116.725c-4.798 0-9.097-2.093-12.07-5.401-.007 0-.014.009-.016.009a281.222 281.222 0 0 0-10.702 6.119c7.902 27.285 20.285 55.635 39.462 81.47 17.83 24.025 39.969 43.952 66.278 59.72h.009c30.345-26.353 54.466-58.226 72.228-95.504-7.025-14.744-15.044-28.64-24.055-41.684 0-.002 0-.004-.002-.006a16.23 16.23 0 0 1-6.091 1.19c-8.975 0-16.25-7.277-16.25-16.25 0-3.627 1.204-6.968 3.215-9.673-.006-.005-.008-.01-.015-.014a285.565 285.565 0 0 0-17.82-18.802c-27.422 3.213-53.481 9.9-78.12 20.03-.005 0-.012.007-.018.01.13.827.217 1.67.217 2.534 0 8.975-7.272 16.252-16.248 16.252h-.002Zm228.065-28.028v-.004a151.773 151.773 0 0 0-5.507-10.787l5.503 10.787c-.122-.035-.242-.067-.361-.1a372.484 372.484 0 0 0-36.453-7.964c-3.251 17.274-8.084 36.391-15.246 56.124a329.461 329.461 0 0 1-10.866 26.383 330.206 330.206 0 0 1 10.866 26.389c9.725 26.789 15.161 52.444 18.161 73.9C286.611 235.626 305 196.21 305 152.5c0-22.782-4.995-44.395-13.951-63.805v.002Zm-68.072 85.017c-15.452 30.365-35.371 57.411-59.494 80.727a302.048 302.048 0 0 1-9.521 8.813 261.446 261.446 0 0 0 8.089 4.266c2.92-4.312 7.86-7.144 13.458-7.144 8.975 0 16.25 7.275 16.25 16.25a16.1 16.1 0 0 1-.415 3.606l.011.004a320.196 320.196 0 0 0 28.649 9.046 152.587 152.587 0 0 0 28.97-18.671c-2.741-22.114-8.142-49.568-18.614-78.336a337.395 337.395 0 0 0-7.383-18.558v-.003ZM106.545 297.952l-10.86-3.885a151.86 151.86 0 0 0 10.86 3.885Zm80.331-9.719c-2.933 2.869-6.937 4.645-11.363 4.645-8.973 0-16.25-7.274-16.25-16.252 0-.122.018-.239.02-.361-.004 0-.008-.005-.015-.005a262.25 262.25 0 0 1-12.627-6.716c-12.421 10.337-25.795 19.811-40.094 28.41C121.05 302.53 136.488 305 152.503 305c19.186 0 37.546-3.541 54.452-10.006a323.828 323.828 0 0 1-20.07-6.756c-.004-.002-.006-.002-.009-.002v-.003Z"/>
  <path fill="#fff" d="M72.358 204.252c-17.52-23.618-31.045-51.131-40.202-81.797-11.015 7.097-21.693 14.999-32.025 23.699A159.183 159.183 0 0 0 0 152.5c0 64.137 39.604 119.033 95.683 141.565 15.405-8.767 29.722-18.525 42.927-29.267-26.165-16.126-48.295-36.323-66.256-60.546h.004Z"/>
</svg>
