<svg xmlns="http://www.w3.org/2000/svg" width="344" height="344" fill="none" viewBox="0 0 344 344">
  <path fill="#fff" d="M116.8.256c3.79 0 6.87 3.08 6.87 6.87s-3.08 6.87-6.87 6.87-6.87-3.08-6.87-6.87 3.08-6.87 6.87-6.87Zm41.23 0c3.79 0 6.87 3.08 6.87 6.87s-3.08 6.87-6.87 6.87-6.87-3.08-6.87-6.87 3.08-6.87 6.87-6.87Zm13.74 0c3.79 0 6.87 3.08 6.87 6.87s-3.08 6.87-6.87 6.87-6.87-3.08-6.87-6.87 3.08-6.87 6.87-6.87Zm27.48 0c3.79 0 6.87 3.08 6.87 6.87s-3.08 6.87-6.87 6.87-6.87-3.08-6.87-6.87 3.08-6.87 6.87-6.87Zm27.49 0c3.79 0 6.87 3.08 6.87 6.87s-3.08 6.87-6.87 6.87-6.87-3.08-6.87-6.87 3.08-6.87 6.87-6.87Z"/>
  <path fill="#fff" d="M158.03 13.996c3.79 0 6.87 3.08 6.87 6.87s-3.08 6.87-6.87 6.87-6.87-3.08-6.87-6.87 3.08-6.87 6.87-6.87Zm13.74 0c3.79 0 6.87 3.08 6.87 6.87s-3.08 6.87-6.87 6.87-6.87-3.08-6.87-6.87 3.08-6.87 6.87-6.87Z"/>
  <path fill="#fff" d="M185.51 13.996c3.79 0 6.87 3.08 6.87 6.87s-3.08 6.87-6.87 6.87-6.87-3.08-6.87-6.87 3.08-6.87 6.87-6.87Zm13.74 0c3.79 0 6.87 3.08 6.87 6.87s-3.08 6.87-6.87 6.87-6.87-3.08-6.87-6.87 3.08-6.87 6.87-6.87Zm27.49 0c3.79 0 6.87 3.08 6.87 6.87s-3.08 6.87-6.87 6.87-6.87-3.08-6.87-6.87 3.08-6.87 6.87-6.87ZM116.8 27.736c3.79 0 6.87 3.08 6.87 6.87s-3.08 6.87-6.87 6.87-6.87-3.08-6.87-6.87 3.08-6.87 6.87-6.87Zm41.23 0c3.79 0 6.87 3.08 6.87 6.87s-3.08 6.87-6.87 6.87-6.87-3.08-6.87-6.87 3.08-6.87 6.87-6.87Zm27.48 0c3.79 0 6.87 3.08 6.87 6.87s-3.08 6.87-6.87 6.87-6.87-3.08-6.87-6.87 3.08-6.87 6.87-6.87Zm27.49 0c3.79 0 6.87 3.08 6.87 6.87s-3.08 6.87-6.87 6.87-6.87-3.08-6.87-6.87 3.08-6.87 6.87-6.87Zm-68.71 13.75c3.79 0 6.87 3.08 6.87 6.87s-3.08 6.87-6.87 6.87-6.87-3.08-6.87-6.87 3.08-6.87 6.87-6.87Zm13.74 0c3.79 0 6.87 3.08 6.87 6.87s-3.08 6.87-6.87 6.87-6.87-3.08-6.87-6.87 3.08-6.87 6.87-6.87Zm68.71 0c3.79 0 6.87 3.08 6.87 6.87s-3.08 6.87-6.87 6.87-6.87-3.08-6.87-6.87 3.08-6.87 6.87-6.87Zm-54.97 13.74c3.79 0 6.87 3.08 6.87 6.87s-3.08 6.87-6.87 6.87-6.87-3.08-6.87-6.87 3.08-6.87 6.87-6.87Zm27.48 0c3.79 0 6.87 3.08 6.87 6.87s-3.08 6.87-6.87 6.87-6.87-3.08-6.87-6.87 3.08-6.87 6.87-6.87Zm-82.45 13.74c3.79 0 6.87 3.08 6.87 6.87s-3.08 6.87-6.87 6.87-6.87-3.08-6.87-6.87 3.08-6.87 6.87-6.87Zm27.49 0c3.79 0 6.87 3.08 6.87 6.87s-3.08 6.87-6.87 6.87-6.87-3.08-6.87-6.87 3.08-6.87 6.87-6.87Zm13.74 0c3.79 0 6.87 3.08 6.87 6.87s-3.08 6.87-6.87 6.87-6.87-3.08-6.87-6.87 3.08-6.87 6.87-6.87Zm27.48 0c3.79 0 6.87 3.08 6.87 6.87s-3.08 6.87-6.87 6.87-6.87-3.08-6.87-6.87 3.08-6.87 6.87-6.87Zm13.74 0c3.79 0 6.87 3.08 6.87 6.87s-3.08 6.87-6.87 6.87-6.87-3.08-6.87-6.87 3.08-6.87 6.87-6.87Zm27.49 0c3.79 0 6.87 3.08 6.87 6.87s-3.08 6.87-6.87 6.87-6.87-3.08-6.87-6.87 3.08-6.87 6.87-6.87ZM116.8 82.706c3.79 0 6.87 3.08 6.87 6.87s-3.08 6.87-6.87 6.87-6.87-3.08-6.87-6.87 3.08-6.87 6.87-6.87Zm27.49 0c3.79 0 6.87 3.08 6.87 6.87s-3.08 6.87-6.87 6.87-6.87-3.08-6.87-6.87 3.08-6.87 6.87-6.87Zm27.48 0c3.79 0 6.87 3.08 6.87 6.87s-3.08 6.87-6.87 6.87-6.87-3.08-6.87-6.87 3.08-6.87 6.87-6.87Zm27.48 0c3.79 0 6.87 3.08 6.87 6.87s-3.08 6.87-6.87 6.87-6.87-3.08-6.87-6.87 3.08-6.87 6.87-6.87Zm27.49 0c3.79 0 6.87 3.08 6.87 6.87s-3.08 6.87-6.87 6.87-6.87-3.08-6.87-6.87 3.08-6.87 6.87-6.87Zm-96.19 13.74c3.79 0 6.87 3.08 6.87 6.87s-3.08 6.87-6.87 6.87-6.87-3.08-6.87-6.87 3.08-6.87 6.87-6.87Z"/>
  <path fill="#fff" d="M144.29 96.446c3.79 0 6.87 3.08 6.87 6.87s-3.08 6.87-6.87 6.87-6.87-3.08-6.87-6.87 3.08-6.87 6.87-6.87Zm13.74 0c3.79 0 6.87 3.08 6.87 6.87s-3.08 6.87-6.87 6.87-6.87-3.08-6.87-6.87 3.08-6.87 6.87-6.87Zm13.74 0c3.79 0 6.87 3.08 6.87 6.87s-3.08 6.87-6.87 6.87-6.87-3.08-6.87-6.87 3.08-6.87 6.87-6.87Z"/>
  <path fill="#fff" d="M185.51 96.446c3.79 0 6.87 3.08 6.87 6.87s-3.08 6.87-6.87 6.87-6.87-3.08-6.87-6.87 3.08-6.87 6.87-6.87Zm41.23 0c3.79 0 6.87 3.08 6.87 6.87s-3.08 6.87-6.87 6.87-6.87-3.08-6.87-6.87 3.08-6.87 6.87-6.87ZM6.87 110.186c3.79 0 6.87 3.08 6.87 6.87s-3.08 6.87-6.87 6.87-6.87-3.08-6.87-6.87 3.08-6.87 6.87-6.87Zm27.49 0c3.79 0 6.87 3.08 6.87 6.87s-3.08 6.87-6.87 6.87-6.87-3.08-6.87-6.87 3.08-6.87 6.87-6.87Zm54.96 0c3.79 0 6.87 3.08 6.87 6.87s-3.08 6.87-6.87 6.87-6.87-3.08-6.87-6.87 3.08-6.87 6.87-6.87Zm13.74 0c3.79 0 6.87 3.08 6.87 6.87s-3.08 6.87-6.87 6.87-6.87-3.08-6.87-6.87 3.08-6.87 6.87-6.87Zm164.9 0c3.79 0 6.87 3.08 6.87 6.87s-3.08 6.87-6.87 6.87-6.87-3.08-6.87-6.87 3.08-6.87 6.87-6.87Zm41.23 0c3.79 0 6.87 3.08 6.87 6.87s-3.08 6.87-6.87 6.87-6.87-3.08-6.87-6.87 3.08-6.87 6.87-6.87Zm27.48 0c3.79 0 6.87 3.08 6.87 6.87s-3.08 6.87-6.87 6.87-6.87-3.08-6.87-6.87 3.08-6.87 6.87-6.87Z"/>
  <path fill="#fff" d="M6.87 123.926c3.79 0 6.87 3.08 6.87 6.87s-3.08 6.87-6.87 6.87-6.87-3.08-6.87-6.87 3.08-6.87 6.87-6.87Z"/>
  <path fill="#fff" d="M20.61 123.926c3.79 0 6.87 3.08 6.87 6.87s-3.08 6.87-6.87 6.87-6.87-3.08-6.87-6.87 3.08-6.87 6.87-6.87Zm41.23 0c3.79 0 6.87 3.08 6.87 6.87s-3.08 6.87-6.87 6.87-6.87-3.08-6.87-6.87 3.08-6.87 6.87-6.87Zm13.74 0c3.79 0 6.87 3.08 6.87 6.87s-3.08 6.87-6.87 6.87-6.87-3.08-6.87-6.87 3.08-6.87 6.87-6.87Zm178.64 0c3.79 0 6.87 3.08 6.87 6.87s-3.08 6.87-6.87 6.87-6.87-3.08-6.87-6.87 3.08-6.87 6.87-6.87Zm13.74 0c3.79 0 6.87 3.08 6.87 6.87s-3.08 6.87-6.87 6.87-6.87-3.08-6.87-6.87 3.08-6.87 6.87-6.87Zm27.49 0c3.79 0 6.87 3.08 6.87 6.87s-3.08 6.87-6.87 6.87-6.87-3.08-6.87-6.87 3.08-6.87 6.87-6.87Zm27.48 0c3.79 0 6.87 3.08 6.87 6.87s-3.08 6.87-6.87 6.87-6.87-3.08-6.87-6.87 3.08-6.87 6.87-6.87Zm13.74 0c3.79 0 6.87 3.08 6.87 6.87s-3.08 6.87-6.87 6.87-6.87-3.08-6.87-6.87 3.08-6.87 6.87-6.87ZM48.1 137.676c3.79 0 6.87 3.08 6.87 6.87s-3.08 6.87-6.87 6.87-6.87-3.08-6.87-6.87 3.08-6.87 6.87-6.87Zm41.22 0c3.79 0 6.87 3.08 6.87 6.87s-3.08 6.87-6.87 6.87-6.87-3.08-6.87-6.87 3.08-6.87 6.87-6.87Zm164.9 0c3.79 0 6.87 3.08 6.87 6.87s-3.08 6.87-6.87 6.87-6.87-3.08-6.87-6.87 3.08-6.87 6.87-6.87Zm13.74 0c3.79 0 6.87 3.08 6.87 6.87s-3.08 6.87-6.87 6.87-6.87-3.08-6.87-6.87 3.08-6.87 6.87-6.87Zm27.49 0c3.79 0 6.87 3.08 6.87 6.87s-3.08 6.87-6.87 6.87-6.87-3.08-6.87-6.87 3.08-6.87 6.87-6.87Zm13.74 0c3.79 0 6.87 3.08 6.87 6.87s-3.08 6.87-6.87 6.87-6.87-3.08-6.87-6.87 3.08-6.87 6.87-6.87Zm27.48 0c3.79 0 6.87 3.08 6.87 6.87s-3.08 6.87-6.87 6.87-6.87-3.08-6.87-6.87 3.08-6.87 6.87-6.87Zm-329.8 13.74c3.79 0 6.87 3.08 6.87 6.87s-3.08 6.87-6.87 6.87-6.87-3.08-6.87-6.87 3.08-6.87 6.87-6.87Z"/>
  <path fill="#fff" d="M20.61 151.416c3.79 0 6.87 3.08 6.87 6.87s-3.08 6.87-6.87 6.87-6.87-3.08-6.87-6.87 3.08-6.87 6.87-6.87Zm27.49 0c3.79 0 6.87 3.08 6.87 6.87s-3.08 6.87-6.87 6.87-6.87-3.08-6.87-6.87 3.08-6.87 6.87-6.87Zm13.74 0c3.79 0 6.87 3.08 6.87 6.87s-3.08 6.87-6.87 6.87-6.87-3.08-6.87-6.87 3.08-6.87 6.87-6.87Zm13.74 0c3.79 0 6.87 3.08 6.87 6.87s-3.08 6.87-6.87 6.87-6.87-3.08-6.87-6.87 3.08-6.87 6.87-6.87Zm164.9 0c3.79 0 6.87 3.08 6.87 6.87s-3.08 6.87-6.87 6.87-6.87-3.08-6.87-6.87 3.08-6.87 6.87-6.87Zm41.22 0c3.79 0 6.87 3.08 6.87 6.87s-3.08 6.87-6.87 6.87-6.87-3.08-6.87-6.87 3.08-6.87 6.87-6.87Zm13.75 0c3.79 0 6.87 3.08 6.87 6.87s-3.08 6.87-6.87 6.87-6.87-3.08-6.87-6.87 3.08-6.87 6.87-6.87ZM6.87 165.156c3.79 0 6.87 3.08 6.87 6.87s-3.08 6.87-6.87 6.87-6.87-3.08-6.87-6.87 3.08-6.87 6.87-6.87Zm27.49 0c3.79 0 6.87 3.08 6.87 6.87s-3.08 6.87-6.87 6.87-6.87-3.08-6.87-6.87 3.08-6.87 6.87-6.87Zm27.48 0c3.79 0 6.87 3.08 6.87 6.87s-3.08 6.87-6.87 6.87-6.87-3.08-6.87-6.87 3.08-6.87 6.87-6.87Zm27.48 0c3.79 0 6.87 3.08 6.87 6.87s-3.08 6.87-6.87 6.87-6.87-3.08-6.87-6.87 3.08-6.87 6.87-6.87Zm164.9 0c3.79 0 6.87 3.08 6.87 6.87s-3.08 6.87-6.87 6.87-6.87-3.08-6.87-6.87 3.08-6.87 6.87-6.87Zm82.45 0c3.79 0 6.87 3.08 6.87 6.87s-3.08 6.87-6.87 6.87-6.87-3.08-6.87-6.87 3.08-6.87 6.87-6.87Zm-233.61 13.74c3.79 0 6.87 3.08 6.87 6.87s-3.08 6.87-6.87 6.87-6.87-3.08-6.87-6.87 3.08-6.87 6.87-6.87Zm137.42 0c3.79 0 6.87 3.08 6.87 6.87s-3.08 6.87-6.87 6.87-6.87-3.08-6.87-6.87 3.08-6.87 6.87-6.87Z"/>
  <path fill="#fff" d="M254.22 178.896c3.79 0 6.87 3.08 6.87 6.87s-3.08 6.87-6.87 6.87-6.87-3.08-6.87-6.87 3.08-6.87 6.87-6.87Zm13.74 0c3.79 0 6.87 3.08 6.87 6.87s-3.08 6.87-6.87 6.87-6.87-3.08-6.87-6.87 3.08-6.87 6.87-6.87Zm54.97 0c3.79 0 6.87 3.08 6.87 6.87s-3.08 6.87-6.87 6.87-6.87-3.08-6.87-6.87 3.08-6.87 6.87-6.87Zm13.74 0c3.79 0 6.87 3.08 6.87 6.87s-3.08 6.87-6.87 6.87-6.87-3.08-6.87-6.87 3.08-6.87 6.87-6.87Zm-329.8 13.74c3.79 0 6.87 3.08 6.87 6.87s-3.08 6.87-6.87 6.87-6.87-3.08-6.87-6.87 3.08-6.87 6.87-6.87Zm13.74 0c3.79 0 6.87 3.08 6.87 6.87s-3.08 6.87-6.87 6.87-6.87-3.08-6.87-6.87 3.08-6.87 6.87-6.87Zm13.75 0c3.79 0 6.87 3.08 6.87 6.87s-3.08 6.87-6.87 6.87-6.87-3.08-6.87-6.87 3.08-6.87 6.87-6.87Zm13.74 0c3.79 0 6.87 3.08 6.87 6.87s-3.08 6.87-6.87 6.87-6.87-3.08-6.87-6.87 3.08-6.87 6.87-6.87Zm41.22 0c3.79 0 6.87 3.08 6.87 6.87s-3.08 6.87-6.87 6.87-6.87-3.08-6.87-6.87 3.08-6.87 6.87-6.87Zm13.74 0c3.79 0 6.87 3.08 6.87 6.87s-3.08 6.87-6.87 6.87-6.87-3.08-6.87-6.87 3.08-6.87 6.87-6.87Zm137.42 0c3.79 0 6.87 3.08 6.87 6.87s-3.08 6.87-6.87 6.87-6.87-3.08-6.87-6.87 3.08-6.87 6.87-6.87Zm13.74 0c3.79 0 6.87 3.08 6.87 6.87s-3.08 6.87-6.87 6.87-6.87-3.08-6.87-6.87 3.08-6.87 6.87-6.87Zm41.23 0c3.79 0 6.87 3.08 6.87 6.87s-3.08 6.87-6.87 6.87-6.87-3.08-6.87-6.87 3.08-6.87 6.87-6.87Zm13.74 0c3.79 0 6.87 3.08 6.87 6.87s-3.08 6.87-6.87 6.87-6.87-3.08-6.87-6.87 3.08-6.87 6.87-6.87Zm27.48 0c3.79 0 6.87 3.08 6.87 6.87s-3.08 6.87-6.87 6.87-6.87-3.08-6.87-6.87 3.08-6.87 6.87-6.87Zm-274.83 13.74c3.79 0 6.87 3.08 6.87 6.87s-3.08 6.87-6.87 6.87-6.87-3.08-6.87-6.87 3.08-6.87 6.87-6.87Zm192.38 0c3.79 0 6.87 3.08 6.87 6.87s-3.08 6.87-6.87 6.87-6.87-3.08-6.87-6.87 3.08-6.87 6.87-6.87Zm13.74 0c3.79 0 6.87 3.08 6.87 6.87s-3.08 6.87-6.87 6.87-6.87-3.08-6.87-6.87 3.08-6.87 6.87-6.87Zm13.74 0c3.79 0 6.87 3.08 6.87 6.87s-3.08 6.87-6.87 6.87-6.87-3.08-6.87-6.87 3.08-6.87 6.87-6.87Zm13.75 0c3.79 0 6.87 3.08 6.87 6.87s-3.08 6.87-6.87 6.87-6.87-3.08-6.87-6.87 3.08-6.87 6.87-6.87ZM6.87 220.126c3.79 0 6.87 3.08 6.87 6.87s-3.08 6.87-6.87 6.87-6.87-3.08-6.87-6.87 3.08-6.87 6.87-6.87Z"/>
  <path fill="#fff" d="M20.61 220.126c3.79 0 6.87 3.08 6.87 6.87s-3.08 6.87-6.87 6.87-6.87-3.08-6.87-6.87 3.08-6.87 6.87-6.87Zm13.75 0c3.79 0 6.87 3.08 6.87 6.87s-3.08 6.87-6.87 6.87-6.87-3.08-6.87-6.87 3.08-6.87 6.87-6.87Zm27.48 0c3.79 0 6.87 3.08 6.87 6.87s-3.08 6.87-6.87 6.87-6.87-3.08-6.87-6.87 3.08-6.87 6.87-6.87Z"/>
  <path fill="#fff" d="M75.58 220.126c3.79 0 6.87 3.08 6.87 6.87s-3.08 6.87-6.87 6.87-6.87-3.08-6.87-6.87 3.08-6.87 6.87-6.87Z"/>
  <path fill="#fff" d="M89.32 220.126c3.79 0 6.87 3.08 6.87 6.87s-3.08 6.87-6.87 6.87-6.87-3.08-6.87-6.87 3.08-6.87 6.87-6.87Zm151.16 0c3.79 0 6.87 3.08 6.87 6.87s-3.08 6.87-6.87 6.87-6.87-3.08-6.87-6.87 3.08-6.87 6.87-6.87Z"/>
  <path fill="#fff" d="M254.22 220.126c3.79 0 6.87 3.08 6.87 6.87s-3.08 6.87-6.87 6.87-6.87-3.08-6.87-6.87 3.08-6.87 6.87-6.87Zm13.74 0c3.79 0 6.87 3.08 6.87 6.87s-3.08 6.87-6.87 6.87-6.87-3.08-6.87-6.87 3.08-6.87 6.87-6.87Zm13.74 0c3.79 0 6.87 3.08 6.87 6.87s-3.08 6.87-6.87 6.87-6.87-3.08-6.87-6.87 3.08-6.87 6.87-6.87Zm41.23 0c3.79 0 6.87 3.08 6.87 6.87s-3.08 6.87-6.87 6.87-6.87-3.08-6.87-6.87 3.08-6.87 6.87-6.87Zm-206.13 13.74c3.79 0 6.87 3.08 6.87 6.87s-3.08 6.87-6.87 6.87-6.87-3.08-6.87-6.87 3.08-6.87 6.87-6.87Zm54.97 0c3.79 0 6.87 3.08 6.87 6.87s-3.08 6.87-6.87 6.87-6.87-3.08-6.87-6.87 3.08-6.87 6.87-6.87Zm41.23 0c3.79 0 6.87 3.08 6.87 6.87s-3.08 6.87-6.87 6.87-6.87-3.08-6.87-6.87 3.08-6.87 6.87-6.87Zm13.74 0c3.79 0 6.87 3.08 6.87 6.87s-3.08 6.87-6.87 6.87-6.87-3.08-6.87-6.87 3.08-6.87 6.87-6.87Zm54.96 0c3.79 0 6.87 3.08 6.87 6.87s-3.08 6.87-6.87 6.87-6.87-3.08-6.87-6.87 3.08-6.87 6.87-6.87Zm54.97 0c3.79 0 6.87 3.08 6.87 6.87s-3.08 6.87-6.87 6.87-6.87-3.08-6.87-6.87 3.08-6.87 6.87-6.87Z"/>
  <path fill="#fff" d="M116.8 247.606c3.79 0 6.87 3.08 6.87 6.87s-3.08 6.87-6.87 6.87-6.87-3.08-6.87-6.87 3.08-6.87 6.87-6.87Zm27.49 0c3.79 0 6.87 3.08 6.87 6.87s-3.08 6.87-6.87 6.87-6.87-3.08-6.87-6.87 3.08-6.87 6.87-6.87Zm27.48 0c3.79 0 6.87 3.08 6.87 6.87s-3.08 6.87-6.87 6.87-6.87-3.08-6.87-6.87 3.08-6.87 6.87-6.87Zm13.74 0c3.79 0 6.87 3.08 6.87 6.87s-3.08 6.87-6.87 6.87-6.87-3.08-6.87-6.87 3.08-6.87 6.87-6.87Zm13.74 0c3.79 0 6.87 3.08 6.87 6.87s-3.08 6.87-6.87 6.87-6.87-3.08-6.87-6.87 3.08-6.87 6.87-6.87Zm27.49 0c3.79 0 6.87 3.08 6.87 6.87s-3.08 6.87-6.87 6.87-6.87-3.08-6.87-6.87 3.08-6.87 6.87-6.87Zm27.48 0c3.79 0 6.87 3.08 6.87 6.87s-3.08 6.87-6.87 6.87-6.87-3.08-6.87-6.87 3.08-6.87 6.87-6.87Zm27.48 0c3.79 0 6.87 3.08 6.87 6.87s-3.08 6.87-6.87 6.87-6.87-3.08-6.87-6.87 3.08-6.87 6.87-6.87Zm54.97 0c3.79 0 6.87 3.08 6.87 6.87s-3.08 6.87-6.87 6.87-6.87-3.08-6.87-6.87 3.08-6.87 6.87-6.87Zm-192.38 13.74c3.79 0 6.87 3.08 6.87 6.87s-3.08 6.87-6.87 6.87-6.87-3.08-6.87-6.87 3.08-6.87 6.87-6.87Zm13.74 0c3.79 0 6.87 3.08 6.87 6.87s-3.08 6.87-6.87 6.87-6.87-3.08-6.87-6.87 3.08-6.87 6.87-6.87Zm13.74 0c3.79 0 6.87 3.08 6.87 6.87s-3.08 6.87-6.87 6.87-6.87-3.08-6.87-6.87 3.08-6.87 6.87-6.87Zm27.48 0c3.79 0 6.87 3.08 6.87 6.87s-3.08 6.87-6.87 6.87-6.87-3.08-6.87-6.87 3.08-6.87 6.87-6.87Zm27.49 0c3.79 0 6.87 3.08 6.87 6.87s-3.08 6.87-6.87 6.87-6.87-3.08-6.87-6.87 3.08-6.87 6.87-6.87Zm54.96 0c3.79 0 6.87 3.08 6.87 6.87s-3.08 6.87-6.87 6.87-6.87-3.08-6.87-6.87 3.08-6.87 6.87-6.87Zm54.97 0c3.79 0 6.87 3.08 6.87 6.87s-3.08 6.87-6.87 6.87-6.87-3.08-6.87-6.87 3.08-6.87 6.87-6.87Zm-206.12 13.74c3.79 0 6.87 3.08 6.87 6.87s-3.08 6.87-6.87 6.87-6.87-3.08-6.87-6.87 3.08-6.87 6.87-6.87Zm54.96 0c3.79 0 6.87 3.08 6.87 6.87s-3.08 6.87-6.87 6.87-6.87-3.08-6.87-6.87 3.08-6.87 6.87-6.87Zm13.74 0c3.79 0 6.87 3.08 6.87 6.87s-3.08 6.87-6.87 6.87-6.87-3.08-6.87-6.87 3.08-6.87 6.87-6.87Zm13.75 0c3.79 0 6.87 3.08 6.87 6.87s-3.08 6.87-6.87 6.87-6.87-3.08-6.87-6.87 3.08-6.87 6.87-6.87Zm13.74 0c3.79 0 6.87 3.08 6.87 6.87s-3.08 6.87-6.87 6.87-6.87-3.08-6.87-6.87 3.08-6.87 6.87-6.87Zm13.74 0c3.79 0 6.87 3.08 6.87 6.87s-3.08 6.87-6.87 6.87-6.87-3.08-6.87-6.87 3.08-6.87 6.87-6.87Z"/>
  <path fill="#fff" d="M254.22 275.086c3.79 0 6.87 3.08 6.87 6.87s-3.08 6.87-6.87 6.87-6.87-3.08-6.87-6.87 3.08-6.87 6.87-6.87Zm13.74 0c3.79 0 6.87 3.08 6.87 6.87s-3.08 6.87-6.87 6.87-6.87-3.08-6.87-6.87 3.08-6.87 6.87-6.87Zm13.74 0c3.79 0 6.87 3.08 6.87 6.87s-3.08 6.87-6.87 6.87-6.87-3.08-6.87-6.87 3.08-6.87 6.87-6.87Zm41.23 0c3.79 0 6.87 3.08 6.87 6.87s-3.08 6.87-6.87 6.87-6.87-3.08-6.87-6.87 3.08-6.87 6.87-6.87Zm13.74 0c3.79 0 6.87 3.08 6.87 6.87s-3.08 6.87-6.87 6.87-6.87-3.08-6.87-6.87 3.08-6.87 6.87-6.87Zm-151.16 13.74c3.79 0 6.87 3.08 6.87 6.87s-3.08 6.87-6.87 6.87-6.87-3.08-6.87-6.87 3.08-6.87 6.87-6.87Zm13.74 0c3.79 0 6.87 3.08 6.87 6.87s-3.08 6.87-6.87 6.87-6.87-3.08-6.87-6.87 3.08-6.87 6.87-6.87Zm27.49 0c3.79 0 6.87 3.08 6.87 6.87s-3.08 6.87-6.87 6.87-6.87-3.08-6.87-6.87 3.08-6.87 6.87-6.87Z"/>
  <path fill="#fff" d="M240.48 288.826c3.79 0 6.87 3.08 6.87 6.87s-3.08 6.87-6.87 6.87-6.87-3.08-6.87-6.87 3.08-6.87 6.87-6.87Zm41.22 0c3.79 0 6.87 3.08 6.87 6.87s-3.08 6.87-6.87 6.87-6.87-3.08-6.87-6.87 3.08-6.87 6.87-6.87Zm27.49 0c3.79 0 6.87 3.08 6.87 6.87s-3.08 6.87-6.87 6.87-6.87-3.08-6.87-6.87 3.08-6.87 6.87-6.87Zm13.74 0c3.79 0 6.87 3.08 6.87 6.87s-3.08 6.87-6.87 6.87-6.87-3.08-6.87-6.87 3.08-6.87 6.87-6.87Zm-206.13 13.74c3.79 0 6.87 3.08 6.87 6.87s-3.08 6.87-6.87 6.87-6.87-3.08-6.87-6.87 3.08-6.87 6.87-6.87Zm13.75 0c3.79 0 6.87 3.08 6.87 6.87s-3.08 6.87-6.87 6.87-6.87-3.08-6.87-6.87 3.08-6.87 6.87-6.87Z"/>
  <path fill="#fff" d="M144.29 302.566c3.79 0 6.87 3.08 6.87 6.87s-3.08 6.87-6.87 6.87-6.87-3.08-6.87-6.87 3.08-6.87 6.87-6.87Zm13.74 0c3.79 0 6.87 3.08 6.87 6.87s-3.08 6.87-6.87 6.87-6.87-3.08-6.87-6.87 3.08-6.87 6.87-6.87Zm54.97 0c3.79 0 6.87 3.08 6.87 6.87s-3.08 6.87-6.87 6.87-6.87-3.08-6.87-6.87 3.08-6.87 6.87-6.87Zm13.74 0c3.79 0 6.87 3.08 6.87 6.87s-3.08 6.87-6.87 6.87-6.87-3.08-6.87-6.87 3.08-6.87 6.87-6.87Z"/>
  <path fill="#fff" d="M240.48 302.566c3.79 0 6.87 3.08 6.87 6.87s-3.08 6.87-6.87 6.87-6.87-3.08-6.87-6.87 3.08-6.87 6.87-6.87Zm27.48 0c3.79 0 6.87 3.08 6.87 6.87s-3.08 6.87-6.87 6.87-6.87-3.08-6.87-6.87 3.08-6.87 6.87-6.87Zm13.74 0c3.79 0 6.87 3.08 6.87 6.87s-3.08 6.87-6.87 6.87-6.87-3.08-6.87-6.87 3.08-6.87 6.87-6.87Zm13.75 0c3.79 0 6.87 3.08 6.87 6.87s-3.08 6.87-6.87 6.87-6.87-3.08-6.87-6.87 3.08-6.87 6.87-6.87Zm27.48 0c3.79 0 6.87 3.08 6.87 6.87s-3.08 6.87-6.87 6.87-6.87-3.08-6.87-6.87 3.08-6.87 6.87-6.87Zm13.74 0c3.79 0 6.87 3.08 6.87 6.87s-3.08 6.87-6.87 6.87-6.87-3.08-6.87-6.87 3.08-6.87 6.87-6.87Zm-206.12 13.75c3.79 0 6.87 3.08 6.87 6.87s-3.08 6.87-6.87 6.87-6.87-3.08-6.87-6.87 3.08-6.87 6.87-6.87Z"/>
  <path fill="#fff" d="M144.29 316.316c3.79 0 6.87 3.08 6.87 6.87s-3.08 6.87-6.87 6.87-6.87-3.08-6.87-6.87 3.08-6.87 6.87-6.87Zm41.22 0c3.79 0 6.87 3.08 6.87 6.87s-3.08 6.87-6.87 6.87-6.87-3.08-6.87-6.87 3.08-6.87 6.87-6.87Zm27.49 0c3.79 0 6.87 3.08 6.87 6.87s-3.08 6.87-6.87 6.87-6.87-3.08-6.87-6.87 3.08-6.87 6.87-6.87Zm13.74 0c3.79 0 6.87 3.08 6.87 6.87s-3.08 6.87-6.87 6.87-6.87-3.08-6.87-6.87 3.08-6.87 6.87-6.87Z"/>
  <path fill="#fff" d="M240.48 316.316c3.79 0 6.87 3.08 6.87 6.87s-3.08 6.87-6.87 6.87-6.87-3.08-6.87-6.87 3.08-6.87 6.87-6.87Z"/>
  <path fill="#fff" d="M254.22 316.316c3.79 0 6.87 3.08 6.87 6.87s-3.08 6.87-6.87 6.87-6.87-3.08-6.87-6.87 3.08-6.87 6.87-6.87Zm13.74 0c3.79 0 6.87 3.08 6.87 6.87s-3.08 6.87-6.87 6.87-6.87-3.08-6.87-6.87 3.08-6.87 6.87-6.87Zm13.74 0c3.79 0 6.87 3.08 6.87 6.87s-3.08 6.87-6.87 6.87-6.87-3.08-6.87-6.87 3.08-6.87 6.87-6.87Zm-164.9 13.74c3.79 0 6.87 3.08 6.87 6.87s-3.08 6.87-6.87 6.87-6.87-3.08-6.87-6.87 3.08-6.87 6.87-6.87Zm13.75 0c3.79 0 6.87 3.08 6.87 6.87s-3.08 6.87-6.87 6.87-6.87-3.08-6.87-6.87 3.08-6.87 6.87-6.87Zm13.74 0c3.79 0 6.87 3.08 6.87 6.87s-3.08 6.87-6.87 6.87-6.87-3.08-6.87-6.87 3.08-6.87 6.87-6.87Zm13.74 0c3.79 0 6.87 3.08 6.87 6.87s-3.08 6.87-6.87 6.87-6.87-3.08-6.87-6.87 3.08-6.87 6.87-6.87Zm13.74 0c3.79 0 6.87 3.08 6.87 6.87s-3.08 6.87-6.87 6.87-6.87-3.08-6.87-6.87 3.08-6.87 6.87-6.87Z"/>
  <path fill="#fff" d="M185.51 330.056c3.79 0 6.87 3.08 6.87 6.87s-3.08 6.87-6.87 6.87-6.87-3.08-6.87-6.87 3.08-6.87 6.87-6.87Zm27.49 0c3.79 0 6.87 3.08 6.87 6.87s-3.08 6.87-6.87 6.87-6.87-3.08-6.87-6.87 3.08-6.87 6.87-6.87Zm13.74 0c3.79 0 6.87 3.08 6.87 6.87s-3.08 6.87-6.87 6.87-6.87-3.08-6.87-6.87 3.08-6.87 6.87-6.87Zm68.71 0c3.79 0 6.87 3.08 6.87 6.87s-3.08 6.87-6.87 6.87-6.87-3.08-6.87-6.87 3.08-6.87 6.87-6.87Zm41.22 0c3.79 0 6.87 3.08 6.87 6.87s-3.08 6.87-6.87 6.87-6.87-3.08-6.87-6.87 3.08-6.87 6.87-6.87Z"/>
  <path fill="#FF7400" d="M48.1 1.196C22.05 1.196.94 22.316.94 48.356c0 26.04 21.11 47.15 47.16 47.15 26.05 0 47.15-21.11 47.15-47.15S74.14 1.196 48.1 1.196Zm0 80.16c-18.2 0-33.01-14.8-33.01-33s14.81-33.01 33.01-33.01c18.2 0 33 14.81 33 33.01 0 18.2-14.8 33-33 33Zm247.34-80.16c-26.04 0-47.15 21.12-47.15 47.16 0 26.04 21.11 47.15 47.15 47.15s47.16-21.11 47.16-47.15-21.12-47.16-47.16-47.16Zm0 80.16c-18.2 0-33-14.8-33-33s14.8-33.01 33-33.01 33.01 14.81 33.01 33.01c0 18.2-14.81 33-33.01 33ZM48.1 248.546c-26.05 0-47.16 21.11-47.16 47.15s21.11 47.16 47.16 47.16c26.05 0 47.15-21.11 47.15-47.16 0-26.05-21.11-47.15-47.15-47.15Zm0 80.16c-18.2 0-33.01-14.81-33.01-33.01 0-18.2 14.81-33 33.01-33 18.2 0 33 14.81 33 33 0 18.19-14.8 33.01-33 33.01Z"/>
  <path fill="#fff" d="M47.69 68.156c11.162 0 20.21-9.048 20.21-20.21s-9.048-20.21-20.21-20.21-20.21 9.048-20.21 20.21 9.048 20.21 20.21 20.21Zm247.35 0c11.162 0 20.21-9.048 20.21-20.21s-9.048-20.21-20.21-20.21-20.21 9.048-20.21 20.21 9.048 20.21 20.21 20.21ZM47.69 315.506c11.162 0 20.21-9.048 20.21-20.21s-9.048-20.21-20.21-20.21-20.21 9.048-20.21 20.21 9.048 20.21 20.21 20.21Zm149.89-188.07h-51.61c-9.1 0-16.49 7.38-16.49 16.48v56.21c0 9.1 7.39 16.49 16.49 16.49h51.61c9.1 0 16.49-7.39 16.49-16.49v-3.68h-14.62v3.68c0 1.03-.84 1.86-1.86 1.86h-51.61c-1.03 0-1.86-.84-1.86-1.86v-56.21c0-1.03.84-1.86 1.86-1.86h51.61c1.03 0 1.86.84 1.86 1.86v3.87h14.62v-3.87c0-9.1-7.39-16.48-16.49-16.48Z"/>
  <path fill="#FF7400" d="M181.37 174.346c-.2.06-.39.1-.59.14Z"/>
  <path fill="#FF7400" d="M188.991 186.236c0 1.12-.46 2.14-1.19 2.87s-1.74 1.19-2.86 1.19h-27.24c-1.78 0-3.23-1.45-3.23-3.23v-8.13c0-3.8 2.62-7 6.15-7.87l.38-.08 8.46-1.9 8.79-1.98c1.42-.35 2.54-1.13 2.54-2.54a2.53 2.53 0 0 0-2.54-2.54h-19.71c-2.24 0-4.06-1.81-4.06-4.05 0-1.13.46-2.14 1.19-2.87.73-.74 1.75-1.19 2.87-1.19h20.15c4.96 0 9.11 3.48 10.14 8.12.17.73.25 1.49.25 2.27 0 4.81-3.27 8.86-7.7 10.03l-.59.14h-.02l-16.02 3.81s-.21.03-.5.12c-.64.2-1.65.71-1.65 1.96v1.81h22.36c2.24 0 4.05 1.81 4.05 4.05l-.02.01Zm25.069-32.39h-14.62v36.52h14.62v-36.52Z"/>
</svg>
