<?xml version="1.0" encoding="UTF-8"?>
<svg id="Layer_1" data-name="Layer 1" xmlns="http://www.w3.org/2000/svg" version="1.1" viewBox="0 0 300 73.77">
  <defs>
    <style>
      .cls-1 {
        fill: #fff;
      }

      .cls-1, .cls-2 {
        stroke-width: 0px;
      }

      .cls-2 {
        fill: #f47721;
      }
    </style>
  </defs>
  <g>
    <path class="cls-1" d="M96.15,21.77c0,4.64,3.76,8.4,8.4,8.4h32.52c3.5,0,6.33,2.84,6.33,6.33v.7c0,3.5-2.84,6.33-6.33,6.33h-32.94c-4.64,0-8.41,3.76-8.41,8.41s3.76,8.41,8.41,8.41h33.36c3.5,0,6.33,2.83,6.33,6.33v.71c0,3.49-2.83,6.33-6.33,6.33h-37.34c-8.42,0-15.51-5.65-17.71-13.36-.46-1.61-.71-3.31-.71-5.07,0-4.46,1.58-8.55,4.23-11.74.84-1.02,1.79-1.95,2.84-2.75.22-.14.44-.29.64-.48h.01c.94-.85,1.54-2.08,1.54-3.45s-.6-2.6-1.54-3.44t-.01,0c-.2-.18-.41-.34-.64-.48-1.04-.81-2-1.74-2.84-2.75-2.65-3.19-4.23-7.28-4.23-11.74,0-1.75.25-3.45.71-5.06,2.2-7.71,9.3-13.37,17.71-13.37h37.34c3.5,0,6.33,2.84,6.33,6.33v.7c0,3.5-2.83,6.33-6.33,6.33h-32.94c-4.64,0-8.4,3.76-8.4,8.41Z"/>
    <path class="cls-1" d="M68.91,67.02h0c0,3.69-2.99,6.68-6.68,6.68H17.1c-8.16,0-14.98-5.72-16.68-13.36-.28-1.21-.42-2.46-.42-3.75,0-7.01,4.22-13.03,10.26-15.68l.19-.08,28.21-12.49,13.75-6.08c1.67-.71,2.83-2.35,2.83-4.27,0-2.55-2.07-4.62-4.63-4.62H6.68c-3.69,0-6.68-2.99-6.68-6.68,0-1.84.74-3.52,1.95-4.72C3.16.75,4.83,0,6.68,0h44.89c8.16,0,14.99,5.72,16.68,13.37.28,1.2.42,2.46.42,3.75,0,7.45-4.76,13.79-11.41,16.14l-27.18,12.2-13.26,5.95c-.16.06-.3.12-.45.2l-.06.03c-1.46.78-2.46,2.31-2.46,4.09,0,2.56,2.07,4.63,4.63,4.63h43.75c3.69,0,6.68,2.99,6.68,6.68Z"/>
    <path class="cls-1" d="M216.22,63.77c1.84,3.19.75,7.27-2.44,9.11-1.05.61-2.2.89-3.33.89-2.3,0-4.55-1.19-5.78-3.33l-13.84-23.97c-1.66-2.88-5.76-2.95-5.76-2.95h-10.41c-2.55,0-4.62,2.07-4.62,4.62v18.82c0,3.69-2.99,6.67-6.67,6.67-1.84,0-3.51-.74-4.72-1.95-1.21-1.21-1.95-2.87-1.95-4.72v-27.49c0-5.13,4.16-9.29,9.29-9.29h31.45c4.65,0,8.41-3.76,8.41-8.41,0-3.12-1.69-5.85-4.22-7.29-1.23-.71-2.67-1.12-4.19-1.12-.29,0-.58.01-.86.04h-33.2c-1.17,0-2.27-.3-3.24-.84-2.04-1.14-3.43-3.33-3.43-5.83,0-1.84.75-3.51,1.95-4.72,1.21-1.21,2.87-1.95,4.72-1.95h33.85c8.35,0,15.61,4.72,19.24,11.63,1.59,3.01,2.48,6.45,2.48,10.09s-.89,7.08-2.48,10.1c-1.73,3.29-4.28,6.09-7.39,8.11,0,0-.05.03-.15.1-.48.34-2.05,1.55-2.61,3.42-.34,1.15-.31,2.54.61,4.14l9.3,16.11Z"/>
  </g>
  <g>
    <path class="cls-1" d="M286.37,0h-42.66c-7.52,0-13.63,6.1-13.63,13.62v46.46c0,7.52,6.1,13.63,13.63,13.63h42.66c7.52,0,13.63-6.1,13.63-13.63v-3.04h-12.09v3.04c0,.85-.69,1.54-1.54,1.54h-42.66c-.85,0-1.54-.69-1.54-1.54V13.62c0-.85.69-1.54,1.54-1.54h42.66c.85,0,1.54.69,1.54,1.54v3.19h12.09v-3.19C300,6.1,293.9,0,286.37,0Z"/>
    <g>
      <path class="cls-2" d="M272.98,38.77c-.16.05-.32.09-.49.12"/>
      <path class="cls-2" d="M279.28,48.59c0,.93-.38,1.77-.98,2.37s-1.44.98-2.37.98h-22.51c-1.47,0-2.67-1.2-2.67-2.67v-6.72c0-3.14,2.16-5.78,5.08-6.5l.31-.07,6.99-1.57,7.27-1.63c1.18-.29,2.1-.94,2.1-2.1s-.94-2.1-2.1-2.1h-16.29c-1.85,0-3.36-1.5-3.36-3.35,0-.93.38-1.77.98-2.37.61-.61,1.45-.98,2.37-.98h16.65c4.1,0,7.53,2.87,8.38,6.71.14.61.21,1.23.21,1.88,0,3.97-2.7,7.32-6.37,8.29l-.49.12h-.02l-13.24,3.15s-.18.02-.41.1c-.53.16-1.37.59-1.37,1.62v1.49h18.48c1.85,0,3.35,1.5,3.35,3.35Z"/>
    </g>
    <rect class="cls-2" x="287.91" y="21.83" width="12.09" height="30.18"/>
  </g>
</svg>