<?xml version="1.0" encoding="UTF-8"?>
<svg xmlns="http://www.w3.org/2000/svg" xmlns:xlink="http://www.w3.org/1999/xlink" version="1.1" viewBox="0 0 1920 1080">
  <defs>
    <style>
      .cls-1 {
        fill: url(#radial-gradient-3);
      }

      .cls-1, .cls-2, .cls-3, .cls-4, .cls-5, .cls-6 {
        stroke-width: 0px;
      }

      .cls-1, .cls-6 {
        mix-blend-mode: screen;
      }

      .cls-7 {
        clip-path: url(#clippath);
      }

      .cls-2 {
        fill: none;
      }

      .cls-3 {
        fill: #000;
      }

      .cls-4 {
        fill: url(#radial-gradient-2);
      }

      .cls-5 {
        fill: url(#radial-gradient-4);
      }

      .cls-8 {
        isolation: isolate;
      }

      .cls-6 {
        fill: url(#radial-gradient);
      }
    </style>
    <clipPath id="clippath">
      <rect class="cls-2" width="1920" height="1080"/>
    </clipPath>
    <radialGradient id="radial-gradient" cx="1665.3" cy="501.67" fx="1665.3" fy="501.67" r="502.35" gradientTransform="translate(-356.81 -171.53) scale(1.32 1.36)" gradientUnits="userSpaceOnUse">
      <stop offset=".36" stop-color="#ff7f0b"/>
      <stop offset=".36" stop-color="#fc7d0a"/>
      <stop offset=".39" stop-color="#cc6608"/>
      <stop offset=".42" stop-color="#a25007"/>
      <stop offset=".45" stop-color="#7b3d05"/>
      <stop offset=".49" stop-color="#592c03"/>
      <stop offset=".53" stop-color="#3d1e02"/>
      <stop offset=".58" stop-color="#261301"/>
      <stop offset=".63" stop-color="#150a00"/>
      <stop offset=".7" stop-color="#090400"/>
      <stop offset=".78" stop-color="#010000"/>
      <stop offset="1" stop-color="#000"/>
    </radialGradient>
    <radialGradient id="radial-gradient-2" cx="2185.14" cy="706.54" fx="2185.14" fy="706.54" r="623.27" gradientTransform="translate(-11.53 -181.24) scale(1.01)" gradientUnits="userSpaceOnUse">
      <stop offset=".58" stop-color="#000"/>
      <stop offset=".63" stop-color="#030100"/>
      <stop offset=".68" stop-color="#0d0600"/>
      <stop offset=".72" stop-color="#1e0f01"/>
      <stop offset=".76" stop-color="#361b02"/>
      <stop offset=".79" stop-color="#552a03"/>
      <stop offset=".83" stop-color="#7b3d05"/>
      <stop offset=".86" stop-color="#a85407"/>
      <stop offset=".9" stop-color="#db6d09"/>
      <stop offset=".92" stop-color="#ff7f0b"/>
    </radialGradient>
    <radialGradient id="radial-gradient-3" cx="4550.48" cy="501.67" fx="4550.48" fy="501.67" r="502.35" gradientTransform="translate(6073.36 -171.53) rotate(-180) scale(1.32 -1.36)" xlink:href="#radial-gradient"/>
    <radialGradient id="radial-gradient-4" cx="5940.44" cy="706.54" fx="5940.44" fy="706.54" r="623.27" gradientTransform="translate(5728.08 -181.24) rotate(-180) scale(1.01 -1.01)" xlink:href="#radial-gradient-2"/>
  </defs>
  <g class="cls-8">
    <g id="Layer_1" data-name="Layer 1">
      <g>
        <rect class="cls-3" width="1920" height="1080"/>
        <g class="cls-7">
          <g>
            <path class="cls-6" d="M2249.32-23.15h-826.54c-151.31,124.82-248.22,316.64-248.22,531.78,0,255.41,136.58,477.95,338.61,594.52h645.79c139.3-80.36,247.47-211.09,301.22-368.25v-452.5c-41.46-121.25-115.33-226.76-210.86-305.56Z"/>
            <path class="cls-4" d="M2307.82,514.82c0,187.04-148.96,338.66-332.67,338.66s-332.66-151.62-332.66-338.66,148.95-338.67,332.66-338.67,332.67,151.63,332.67,338.67Z"/>
          </g>
          <g>
            <path class="cls-1" d="M-331.96-23.15H494.58c151.31,124.82,248.22,316.64,248.22,531.78,0,255.41-136.58,477.95-338.61,594.52H-241.6c-139.3-80.36-247.47-211.09-301.22-368.25v-452.5c41.46-121.25,115.33-226.76,210.86-305.56Z"/>
            <path class="cls-5" d="M-390.46,514.82c0,187.04,148.96,338.66,332.67,338.66,183.71,0,332.66-151.62,332.66-338.66,0-187.04-148.95-338.67-332.66-338.67-183.71,0-332.67,151.63-332.67,338.67Z"/>
          </g>
        </g>
      </g>
    </g>
  </g>
</svg>