<?xml version="1.0" encoding="UTF-8"?>
<svg id="Layer_1" data-name="Layer 1" xmlns="http://www.w3.org/2000/svg" version="1.1" viewBox="0 0 16 16">
  <defs>
    <style>
      .cls-1 {
        fill: #010101;
      }

      .cls-1, .cls-2 {
        stroke-width: 0px;
      }

      .cls-2 {
        fill: #f47721;
      }
    </style>
  </defs>
  <path class="cls-1" d="M12.63,0H3.37C1.74,0,.41,1.32.41,2.96v10.09c0,1.63,1.33,2.96,2.96,2.96h9.26c1.63,0,2.96-1.33,2.96-2.96v-.66h-2.62v.66c0,.18-.15.33-.33.33H3.37c-.18,0-.33-.15-.33-.33V2.96c0-.18.15-.33.33-.33h9.26c.18,0,.33.15.33.33v.69h2.62v-.69c0-1.63-1.33-2.96-2.96-2.96Z"/>
  <g>
    <path class="cls-2" d="M9.72,8.42s-.07.02-.11.03"/>
    <path class="cls-2" d="M11.09,10.55c0,.2-.08.38-.21.51s-.31.21-.51.21h-4.89c-.32,0-.58-.26-.58-.58v-1.46c0-.68.47-1.26,1.1-1.41l.07-.02,1.52-.34,1.58-.35c.26-.06.45-.2.45-.45s-.2-.45-.45-.45h-3.54c-.4,0-.73-.33-.73-.73,0-.2.08-.38.21-.51.13-.13.31-.21.51-.21h3.62c.89,0,1.63.62,1.82,1.46.03.13.05.27.05.41,0,.86-.59,1.59-1.38,1.8l-.11.03h0l-2.87.68s-.04,0-.09.02c-.11.04-.3.13-.3.35v.32h4.01c.4,0,.73.33.73.73Z"/>
  </g>
  <rect class="cls-2" x="12.96" y="4.74" width="2.62" height="6.55"/>
</svg>